G04 #@! TF.GenerationSoftware,KiCad,Pcbnew,(5.0.2)-1*
G04 #@! TF.CreationDate,2018-12-29T13:39:34-05:00*
G04 #@! TF.ProjectId,8P8C+LED_Horizontal_with_mounts,38503843-2b4c-4454-945f-486f72697a6f,rev?*
G04 #@! TF.SameCoordinates,Original*
G04 #@! TF.FileFunction,Legend,Bot*
G04 #@! TF.FilePolarity,Positive*
%FSLAX46Y46*%
G04 Gerber Fmt 4.6, Leading zero omitted, Abs format (unit mm)*
G04 Created by KiCad (PCBNEW (5.0.2)-1) date 12/29/2018 1:39:34 PM*
%MOMM*%
%LPD*%
G01*
G04 APERTURE LIST*
%ADD10C,0.300000*%
%ADD11C,0.120000*%
%ADD12C,0.010000*%
G04 APERTURE END LIST*
D10*
X137937714Y-101516571D02*
X137937714Y-100016571D01*
X137937714Y-100730857D02*
X137080571Y-100730857D01*
X137080571Y-101516571D02*
X137080571Y-100016571D01*
X136509142Y-100016571D02*
X136152000Y-101516571D01*
X135866285Y-100445142D01*
X135580571Y-101516571D01*
X135223428Y-100016571D01*
X146272142Y-100016571D02*
X145986428Y-100016571D01*
X145843571Y-100088000D01*
X145700714Y-100230857D01*
X145629285Y-100516571D01*
X145629285Y-101016571D01*
X145700714Y-101302285D01*
X145843571Y-101445142D01*
X145986428Y-101516571D01*
X146272142Y-101516571D01*
X146415000Y-101445142D01*
X146557857Y-101302285D01*
X146629285Y-101016571D01*
X146629285Y-100516571D01*
X146557857Y-100230857D01*
X146415000Y-100088000D01*
X146272142Y-100016571D01*
X145057857Y-101445142D02*
X144843571Y-101516571D01*
X144486428Y-101516571D01*
X144343571Y-101445142D01*
X144272142Y-101373714D01*
X144200714Y-101230857D01*
X144200714Y-101088000D01*
X144272142Y-100945142D01*
X144343571Y-100873714D01*
X144486428Y-100802285D01*
X144772142Y-100730857D01*
X144915000Y-100659428D01*
X144986428Y-100588000D01*
X145057857Y-100445142D01*
X145057857Y-100302285D01*
X144986428Y-100159428D01*
X144915000Y-100088000D01*
X144772142Y-100016571D01*
X144415000Y-100016571D01*
X144200714Y-100088000D01*
X149352000Y-112903000D02*
X150114000Y-114300000D01*
X145923000Y-110998000D02*
X146685000Y-112395000D01*
X148497714Y-112843571D02*
X148212000Y-112843571D01*
X148069142Y-112915000D01*
X147926285Y-113057857D01*
X147854857Y-113343571D01*
X147854857Y-113843571D01*
X147926285Y-114129285D01*
X148069142Y-114272142D01*
X148212000Y-114343571D01*
X148497714Y-114343571D01*
X148640571Y-114272142D01*
X148783428Y-114129285D01*
X148854857Y-113843571D01*
X148854857Y-113343571D01*
X148783428Y-113057857D01*
X148640571Y-112915000D01*
X148497714Y-112843571D01*
X147283428Y-114272142D02*
X147069142Y-114343571D01*
X146712000Y-114343571D01*
X146569142Y-114272142D01*
X146497714Y-114200714D01*
X146426285Y-114057857D01*
X146426285Y-113915000D01*
X146497714Y-113772142D01*
X146569142Y-113700714D01*
X146712000Y-113629285D01*
X146997714Y-113557857D01*
X147140571Y-113486428D01*
X147212000Y-113415000D01*
X147283428Y-113272142D01*
X147283428Y-113129285D01*
X147212000Y-112986428D01*
X147140571Y-112915000D01*
X146997714Y-112843571D01*
X146640571Y-112843571D01*
X146426285Y-112915000D01*
X145783428Y-114343571D02*
X145783428Y-112843571D01*
X145783428Y-113557857D02*
X144926285Y-113557857D01*
X144926285Y-114343571D02*
X144926285Y-112843571D01*
X144354857Y-112843571D02*
X143997714Y-114343571D01*
X143712000Y-113272142D01*
X143426285Y-114343571D01*
X143069142Y-112843571D01*
X141997714Y-113557857D02*
X141783428Y-113629285D01*
X141712000Y-113700714D01*
X141640571Y-113843571D01*
X141640571Y-114057857D01*
X141712000Y-114200714D01*
X141783428Y-114272142D01*
X141926285Y-114343571D01*
X142497714Y-114343571D01*
X142497714Y-112843571D01*
X141997714Y-112843571D01*
X141854857Y-112915000D01*
X141783428Y-112986428D01*
X141712000Y-113129285D01*
X141712000Y-113272142D01*
X141783428Y-113415000D01*
X141854857Y-113486428D01*
X141997714Y-113557857D01*
X142497714Y-113557857D01*
X140997714Y-114343571D02*
X140997714Y-113343571D01*
X140997714Y-113629285D02*
X140926285Y-113486428D01*
X140854857Y-113415000D01*
X140712000Y-113343571D01*
X140569142Y-113343571D01*
X139497714Y-114272142D02*
X139640571Y-114343571D01*
X139926285Y-114343571D01*
X140069142Y-114272142D01*
X140140571Y-114129285D01*
X140140571Y-113557857D01*
X140069142Y-113415000D01*
X139926285Y-113343571D01*
X139640571Y-113343571D01*
X139497714Y-113415000D01*
X139426285Y-113557857D01*
X139426285Y-113700714D01*
X140140571Y-113843571D01*
X138140571Y-114343571D02*
X138140571Y-113557857D01*
X138212000Y-113415000D01*
X138354857Y-113343571D01*
X138640571Y-113343571D01*
X138783428Y-113415000D01*
X138140571Y-114272142D02*
X138283428Y-114343571D01*
X138640571Y-114343571D01*
X138783428Y-114272142D01*
X138854857Y-114129285D01*
X138854857Y-113986428D01*
X138783428Y-113843571D01*
X138640571Y-113772142D01*
X138283428Y-113772142D01*
X138140571Y-113700714D01*
X137426285Y-114343571D02*
X137426285Y-112843571D01*
X137283428Y-113772142D02*
X136854857Y-114343571D01*
X136854857Y-113343571D02*
X137426285Y-113915000D01*
X135997714Y-114343571D02*
X136140571Y-114272142D01*
X136212000Y-114200714D01*
X136283428Y-114057857D01*
X136283428Y-113629285D01*
X136212000Y-113486428D01*
X136140571Y-113415000D01*
X135997714Y-113343571D01*
X135783428Y-113343571D01*
X135640571Y-113415000D01*
X135569142Y-113486428D01*
X135497714Y-113629285D01*
X135497714Y-114057857D01*
X135569142Y-114200714D01*
X135640571Y-114272142D01*
X135783428Y-114343571D01*
X135997714Y-114343571D01*
X134212000Y-113343571D02*
X134212000Y-114343571D01*
X134854857Y-113343571D02*
X134854857Y-114129285D01*
X134783428Y-114272142D01*
X134640571Y-114343571D01*
X134426285Y-114343571D01*
X134283428Y-114272142D01*
X134212000Y-114200714D01*
X133712000Y-113343571D02*
X133140571Y-113343571D01*
X133497714Y-112843571D02*
X133497714Y-114129285D01*
X133426285Y-114272142D01*
X133283428Y-114343571D01*
X133140571Y-114343571D01*
X132712000Y-114272142D02*
X132569142Y-114343571D01*
X132283428Y-114343571D01*
X132140571Y-114272142D01*
X132069142Y-114129285D01*
X132069142Y-114057857D01*
X132140571Y-113915000D01*
X132283428Y-113843571D01*
X132497714Y-113843571D01*
X132640571Y-113772142D01*
X132712000Y-113629285D01*
X132712000Y-113557857D01*
X132640571Y-113415000D01*
X132497714Y-113343571D01*
X132283428Y-113343571D01*
X132140571Y-113415000D01*
X144950142Y-112311571D02*
X144950142Y-111525857D01*
X145021571Y-111383000D01*
X145164428Y-111311571D01*
X145450142Y-111311571D01*
X145593000Y-111383000D01*
X144950142Y-112240142D02*
X145093000Y-112311571D01*
X145450142Y-112311571D01*
X145593000Y-112240142D01*
X145664428Y-112097285D01*
X145664428Y-111954428D01*
X145593000Y-111811571D01*
X145450142Y-111740142D01*
X145093000Y-111740142D01*
X144950142Y-111668714D01*
X143593000Y-112311571D02*
X143593000Y-110811571D01*
X143593000Y-112240142D02*
X143735857Y-112311571D01*
X144021571Y-112311571D01*
X144164428Y-112240142D01*
X144235857Y-112168714D01*
X144307285Y-112025857D01*
X144307285Y-111597285D01*
X144235857Y-111454428D01*
X144164428Y-111383000D01*
X144021571Y-111311571D01*
X143735857Y-111311571D01*
X143593000Y-111383000D01*
X142307285Y-112240142D02*
X142450142Y-112311571D01*
X142735857Y-112311571D01*
X142878714Y-112240142D01*
X142950142Y-112097285D01*
X142950142Y-111525857D01*
X142878714Y-111383000D01*
X142735857Y-111311571D01*
X142450142Y-111311571D01*
X142307285Y-111383000D01*
X142235857Y-111525857D01*
X142235857Y-111668714D01*
X142950142Y-111811571D01*
X141593000Y-112311571D02*
X141593000Y-111311571D01*
X141593000Y-111597285D02*
X141521571Y-111454428D01*
X141450142Y-111383000D01*
X141307285Y-111311571D01*
X141164428Y-111311571D01*
X140021571Y-111311571D02*
X140021571Y-112311571D01*
X140664428Y-111311571D02*
X140664428Y-112097285D01*
X140593000Y-112240142D01*
X140450142Y-112311571D01*
X140235857Y-112311571D01*
X140093000Y-112240142D01*
X140021571Y-112168714D01*
X139378714Y-112240142D02*
X139235857Y-112311571D01*
X138950142Y-112311571D01*
X138807285Y-112240142D01*
X138735857Y-112097285D01*
X138735857Y-112025857D01*
X138807285Y-111883000D01*
X138950142Y-111811571D01*
X139164428Y-111811571D01*
X139307285Y-111740142D01*
X139378714Y-111597285D01*
X139378714Y-111525857D01*
X139307285Y-111383000D01*
X139164428Y-111311571D01*
X138950142Y-111311571D01*
X138807285Y-111383000D01*
X138093000Y-112311571D02*
X138093000Y-110811571D01*
X137450142Y-112311571D02*
X137450142Y-111525857D01*
X137521571Y-111383000D01*
X137664428Y-111311571D01*
X137878714Y-111311571D01*
X138021571Y-111383000D01*
X138093000Y-111454428D01*
X136093000Y-112311571D02*
X136093000Y-111525857D01*
X136164428Y-111383000D01*
X136307285Y-111311571D01*
X136593000Y-111311571D01*
X136735857Y-111383000D01*
X136093000Y-112240142D02*
X136235857Y-112311571D01*
X136593000Y-112311571D01*
X136735857Y-112240142D01*
X136807285Y-112097285D01*
X136807285Y-111954428D01*
X136735857Y-111811571D01*
X136593000Y-111740142D01*
X136235857Y-111740142D01*
X136093000Y-111668714D01*
X146275571Y-109406571D02*
X146275571Y-110620857D01*
X146347000Y-110763714D01*
X146418428Y-110835142D01*
X146561285Y-110906571D01*
X146775571Y-110906571D01*
X146918428Y-110835142D01*
X146275571Y-110335142D02*
X146418428Y-110406571D01*
X146704142Y-110406571D01*
X146847000Y-110335142D01*
X146918428Y-110263714D01*
X146989857Y-110120857D01*
X146989857Y-109692285D01*
X146918428Y-109549428D01*
X146847000Y-109478000D01*
X146704142Y-109406571D01*
X146418428Y-109406571D01*
X146275571Y-109478000D01*
X145561285Y-110406571D02*
X145561285Y-109406571D01*
X145561285Y-108906571D02*
X145632714Y-108978000D01*
X145561285Y-109049428D01*
X145489857Y-108978000D01*
X145561285Y-108906571D01*
X145561285Y-109049428D01*
X145061285Y-109406571D02*
X144489857Y-109406571D01*
X144847000Y-108906571D02*
X144847000Y-110192285D01*
X144775571Y-110335142D01*
X144632714Y-110406571D01*
X144489857Y-110406571D01*
X143989857Y-110406571D02*
X143989857Y-108906571D01*
X143347000Y-110406571D02*
X143347000Y-109620857D01*
X143418428Y-109478000D01*
X143561285Y-109406571D01*
X143775571Y-109406571D01*
X143918428Y-109478000D01*
X143989857Y-109549428D01*
X141989857Y-109406571D02*
X141989857Y-110406571D01*
X142632714Y-109406571D02*
X142632714Y-110192285D01*
X142561285Y-110335142D01*
X142418428Y-110406571D01*
X142204142Y-110406571D01*
X142061285Y-110335142D01*
X141989857Y-110263714D01*
X141275571Y-110406571D02*
X141275571Y-108906571D01*
X141275571Y-109478000D02*
X141132714Y-109406571D01*
X140847000Y-109406571D01*
X140704142Y-109478000D01*
X140632714Y-109549428D01*
X140561285Y-109692285D01*
X140561285Y-110120857D01*
X140632714Y-110263714D01*
X140704142Y-110335142D01*
X140847000Y-110406571D01*
X141132714Y-110406571D01*
X141275571Y-110335142D01*
X139918428Y-110263714D02*
X139847000Y-110335142D01*
X139918428Y-110406571D01*
X139989857Y-110335142D01*
X139918428Y-110263714D01*
X139918428Y-110406571D01*
X138561285Y-110335142D02*
X138704142Y-110406571D01*
X138989857Y-110406571D01*
X139132714Y-110335142D01*
X139204142Y-110263714D01*
X139275571Y-110120857D01*
X139275571Y-109692285D01*
X139204142Y-109549428D01*
X139132714Y-109478000D01*
X138989857Y-109406571D01*
X138704142Y-109406571D01*
X138561285Y-109478000D01*
X137704142Y-110406571D02*
X137847000Y-110335142D01*
X137918428Y-110263714D01*
X137989857Y-110120857D01*
X137989857Y-109692285D01*
X137918428Y-109549428D01*
X137847000Y-109478000D01*
X137704142Y-109406571D01*
X137489857Y-109406571D01*
X137347000Y-109478000D01*
X137275571Y-109549428D01*
X137204142Y-109692285D01*
X137204142Y-110120857D01*
X137275571Y-110263714D01*
X137347000Y-110335142D01*
X137489857Y-110406571D01*
X137704142Y-110406571D01*
X136561285Y-110406571D02*
X136561285Y-109406571D01*
X136561285Y-109549428D02*
X136489857Y-109478000D01*
X136347000Y-109406571D01*
X136132714Y-109406571D01*
X135989857Y-109478000D01*
X135918428Y-109620857D01*
X135918428Y-110406571D01*
X135918428Y-109620857D02*
X135847000Y-109478000D01*
X135704142Y-109406571D01*
X135489857Y-109406571D01*
X135347000Y-109478000D01*
X135275571Y-109620857D01*
X135275571Y-110406571D01*
D11*
G04 #@! TO.C,J2*
X148650000Y-115256000D02*
X148650000Y-117916000D01*
X135890000Y-115256000D02*
X148650000Y-115256000D01*
X135890000Y-117916000D02*
X148650000Y-117916000D01*
X135890000Y-115256000D02*
X135890000Y-117916000D01*
X134620000Y-115256000D02*
X133290000Y-115256000D01*
X133290000Y-115256000D02*
X133290000Y-116586000D01*
G04 #@! TO.C,J3*
X148650000Y-95310000D02*
X148650000Y-93980000D01*
X147320000Y-95310000D02*
X148650000Y-95310000D01*
X146050000Y-95310000D02*
X146050000Y-92650000D01*
X146050000Y-92650000D02*
X133290000Y-92650000D01*
X146050000Y-95310000D02*
X133290000Y-95310000D01*
X133290000Y-95310000D02*
X133290000Y-92650000D01*
D12*
G04 #@! TO.C,REF\002A\002A*
G36*
X140541186Y-96401931D02*
X140457365Y-96846555D01*
X140148080Y-96974053D01*
X139838794Y-97101551D01*
X139467754Y-96849246D01*
X139363843Y-96778996D01*
X139269913Y-96716272D01*
X139190348Y-96663938D01*
X139129530Y-96624857D01*
X139091843Y-96601893D01*
X139081579Y-96596942D01*
X139063090Y-96609676D01*
X139023580Y-96644882D01*
X138967478Y-96698062D01*
X138899213Y-96764718D01*
X138823214Y-96840354D01*
X138743908Y-96920472D01*
X138665725Y-97000574D01*
X138593093Y-97076164D01*
X138530441Y-97142745D01*
X138482197Y-97195818D01*
X138452790Y-97230887D01*
X138445759Y-97242623D01*
X138455877Y-97264260D01*
X138484241Y-97311662D01*
X138527871Y-97380193D01*
X138583782Y-97465215D01*
X138648994Y-97562093D01*
X138686781Y-97617350D01*
X138755657Y-97718248D01*
X138816860Y-97809299D01*
X138867422Y-97885970D01*
X138904372Y-97943728D01*
X138924742Y-97978043D01*
X138927803Y-97985254D01*
X138920864Y-98005748D01*
X138901949Y-98053513D01*
X138873913Y-98121832D01*
X138839609Y-98203989D01*
X138801891Y-98293270D01*
X138763613Y-98382958D01*
X138727630Y-98466338D01*
X138696794Y-98536694D01*
X138673961Y-98587310D01*
X138661983Y-98611471D01*
X138661276Y-98612422D01*
X138642469Y-98617036D01*
X138592382Y-98627328D01*
X138516207Y-98642287D01*
X138419135Y-98660901D01*
X138306357Y-98682159D01*
X138240558Y-98694418D01*
X138120050Y-98717362D01*
X138011203Y-98739195D01*
X137919524Y-98758722D01*
X137850519Y-98774748D01*
X137809696Y-98786079D01*
X137801489Y-98789674D01*
X137793452Y-98814006D01*
X137786967Y-98868959D01*
X137782030Y-98948108D01*
X137778636Y-99045026D01*
X137776782Y-99153287D01*
X137776462Y-99266465D01*
X137777673Y-99378135D01*
X137780410Y-99481868D01*
X137784669Y-99571241D01*
X137790445Y-99639826D01*
X137797733Y-99681197D01*
X137802105Y-99689810D01*
X137828236Y-99700133D01*
X137883607Y-99714892D01*
X137960893Y-99732352D01*
X138052770Y-99750780D01*
X138084842Y-99756741D01*
X138239476Y-99785066D01*
X138361625Y-99807876D01*
X138455327Y-99826080D01*
X138524616Y-99840583D01*
X138573529Y-99852292D01*
X138606103Y-99862115D01*
X138626372Y-99870956D01*
X138638374Y-99879724D01*
X138640053Y-99881457D01*
X138656816Y-99909371D01*
X138682386Y-99963695D01*
X138714212Y-100037777D01*
X138749740Y-100124965D01*
X138786417Y-100218608D01*
X138821689Y-100312052D01*
X138853004Y-100398647D01*
X138877807Y-100471740D01*
X138893546Y-100524678D01*
X138897668Y-100550811D01*
X138897324Y-100551726D01*
X138883359Y-100573086D01*
X138851678Y-100620084D01*
X138805609Y-100687827D01*
X138748482Y-100771423D01*
X138683627Y-100865982D01*
X138665157Y-100892854D01*
X138599301Y-100990275D01*
X138541350Y-101079163D01*
X138494462Y-101154412D01*
X138461793Y-101210920D01*
X138446500Y-101243581D01*
X138445759Y-101247593D01*
X138458608Y-101268684D01*
X138494112Y-101310464D01*
X138547707Y-101368445D01*
X138614829Y-101438135D01*
X138690913Y-101515045D01*
X138771396Y-101594683D01*
X138851713Y-101672561D01*
X138927301Y-101744186D01*
X138993595Y-101805070D01*
X139046031Y-101850721D01*
X139080045Y-101876650D01*
X139089455Y-101880883D01*
X139111357Y-101870912D01*
X139156200Y-101844020D01*
X139216679Y-101804736D01*
X139263211Y-101773117D01*
X139347525Y-101715098D01*
X139447374Y-101646784D01*
X139547527Y-101578579D01*
X139601373Y-101542075D01*
X139783629Y-101418800D01*
X139936619Y-101501520D01*
X140006318Y-101537759D01*
X140065586Y-101565926D01*
X140105689Y-101581991D01*
X140115897Y-101584226D01*
X140128171Y-101567722D01*
X140152387Y-101521082D01*
X140186737Y-101448609D01*
X140229412Y-101354606D01*
X140278606Y-101243374D01*
X140332510Y-101119215D01*
X140389316Y-100986432D01*
X140447218Y-100849327D01*
X140504407Y-100712202D01*
X140559076Y-100579358D01*
X140609416Y-100455098D01*
X140653620Y-100343725D01*
X140689881Y-100249539D01*
X140716391Y-100176844D01*
X140731342Y-100129941D01*
X140733746Y-100113833D01*
X140714689Y-100093286D01*
X140672964Y-100059933D01*
X140617294Y-100020702D01*
X140612622Y-100017599D01*
X140468736Y-99902423D01*
X140352717Y-99768053D01*
X140265570Y-99618784D01*
X140208301Y-99458913D01*
X140181914Y-99292737D01*
X140187415Y-99124552D01*
X140225810Y-98958655D01*
X140298105Y-98799342D01*
X140319374Y-98764487D01*
X140430004Y-98623737D01*
X140560698Y-98510714D01*
X140706936Y-98426003D01*
X140864192Y-98370194D01*
X141027943Y-98343874D01*
X141193667Y-98347630D01*
X141356838Y-98382050D01*
X141512935Y-98447723D01*
X141657433Y-98545235D01*
X141702131Y-98584813D01*
X141815888Y-98708703D01*
X141898782Y-98839124D01*
X141955644Y-98985315D01*
X141987313Y-99130088D01*
X141995131Y-99292860D01*
X141969062Y-99456440D01*
X141911755Y-99615298D01*
X141825856Y-99763906D01*
X141714014Y-99896735D01*
X141578877Y-100008256D01*
X141561117Y-100020011D01*
X141504850Y-100058508D01*
X141462077Y-100091863D01*
X141441628Y-100113160D01*
X141441331Y-100113833D01*
X141445721Y-100136871D01*
X141463124Y-100189157D01*
X141491732Y-100266390D01*
X141529735Y-100364268D01*
X141575326Y-100478491D01*
X141626697Y-100604758D01*
X141682038Y-100738767D01*
X141739542Y-100876218D01*
X141797399Y-101012808D01*
X141853802Y-101144237D01*
X141906942Y-101266205D01*
X141955010Y-101374409D01*
X141996199Y-101464549D01*
X142028699Y-101532323D01*
X142050703Y-101573430D01*
X142059564Y-101584226D01*
X142086640Y-101575819D01*
X142137303Y-101553272D01*
X142202817Y-101520613D01*
X142238841Y-101501520D01*
X142391832Y-101418800D01*
X142574088Y-101542075D01*
X142667125Y-101605228D01*
X142768985Y-101674727D01*
X142864438Y-101740165D01*
X142912250Y-101773117D01*
X142979495Y-101818273D01*
X143036436Y-101854057D01*
X143075646Y-101875938D01*
X143088381Y-101880563D01*
X143106917Y-101868085D01*
X143147941Y-101833252D01*
X143207475Y-101779678D01*
X143281542Y-101710983D01*
X143366165Y-101630781D01*
X143419685Y-101579286D01*
X143513319Y-101487286D01*
X143594241Y-101404999D01*
X143659177Y-101335945D01*
X143704858Y-101283644D01*
X143728011Y-101251616D01*
X143730232Y-101245116D01*
X143719924Y-101220394D01*
X143691439Y-101170405D01*
X143647937Y-101100212D01*
X143592577Y-101014875D01*
X143528520Y-100919456D01*
X143510303Y-100892854D01*
X143443927Y-100796167D01*
X143384378Y-100709117D01*
X143334984Y-100636595D01*
X143299075Y-100583493D01*
X143279981Y-100554703D01*
X143278136Y-100551726D01*
X143280895Y-100528782D01*
X143295538Y-100478336D01*
X143319513Y-100407041D01*
X143350266Y-100321547D01*
X143385244Y-100228507D01*
X143421893Y-100134574D01*
X143457661Y-100046399D01*
X143489994Y-99970634D01*
X143516338Y-99913931D01*
X143534142Y-99882943D01*
X143535407Y-99881457D01*
X143546294Y-99872601D01*
X143564682Y-99863843D01*
X143594606Y-99854277D01*
X143640103Y-99842996D01*
X143705209Y-99829093D01*
X143793961Y-99811663D01*
X143910393Y-99789798D01*
X144058542Y-99762591D01*
X144090618Y-99756741D01*
X144185686Y-99738374D01*
X144268565Y-99720405D01*
X144331930Y-99704569D01*
X144368458Y-99692600D01*
X144373356Y-99689810D01*
X144381427Y-99665072D01*
X144387987Y-99609790D01*
X144393033Y-99530389D01*
X144396559Y-99433296D01*
X144398561Y-99324938D01*
X144399036Y-99211740D01*
X144397977Y-99100128D01*
X144395382Y-98996529D01*
X144391246Y-98907368D01*
X144385563Y-98839072D01*
X144378331Y-98798066D01*
X144373971Y-98789674D01*
X144349698Y-98781208D01*
X144294426Y-98767435D01*
X144213662Y-98749550D01*
X144112912Y-98728748D01*
X143997683Y-98706223D01*
X143934902Y-98694418D01*
X143815787Y-98672151D01*
X143709565Y-98651979D01*
X143621427Y-98634915D01*
X143556566Y-98621969D01*
X143520174Y-98614155D01*
X143514184Y-98612422D01*
X143504061Y-98592890D01*
X143482662Y-98545843D01*
X143452839Y-98478003D01*
X143417445Y-98396091D01*
X143379332Y-98306828D01*
X143341353Y-98216935D01*
X143306360Y-98133135D01*
X143277206Y-98062147D01*
X143256743Y-98010694D01*
X143247823Y-97985497D01*
X143247657Y-97984396D01*
X143257769Y-97964519D01*
X143286117Y-97918777D01*
X143329723Y-97851717D01*
X143385606Y-97767884D01*
X143450787Y-97671826D01*
X143488679Y-97616650D01*
X143557725Y-97515481D01*
X143619050Y-97423630D01*
X143669663Y-97345744D01*
X143706571Y-97286469D01*
X143726782Y-97250451D01*
X143729701Y-97242377D01*
X143717153Y-97223584D01*
X143682463Y-97183457D01*
X143630063Y-97126493D01*
X143564384Y-97057185D01*
X143489856Y-96980031D01*
X143410913Y-96899525D01*
X143331983Y-96820163D01*
X143257500Y-96746440D01*
X143191894Y-96682852D01*
X143139596Y-96633894D01*
X143105039Y-96604061D01*
X143093478Y-96596942D01*
X143074654Y-96606953D01*
X143029631Y-96635078D01*
X142962787Y-96678454D01*
X142878499Y-96734218D01*
X142781144Y-96799506D01*
X142707707Y-96849246D01*
X142336667Y-97101551D01*
X141718095Y-96846555D01*
X141634275Y-96401931D01*
X141550454Y-95957307D01*
X140625006Y-95957307D01*
X140541186Y-96401931D01*
X140541186Y-96401931D01*
G37*
X140541186Y-96401931D02*
X140457365Y-96846555D01*
X140148080Y-96974053D01*
X139838794Y-97101551D01*
X139467754Y-96849246D01*
X139363843Y-96778996D01*
X139269913Y-96716272D01*
X139190348Y-96663938D01*
X139129530Y-96624857D01*
X139091843Y-96601893D01*
X139081579Y-96596942D01*
X139063090Y-96609676D01*
X139023580Y-96644882D01*
X138967478Y-96698062D01*
X138899213Y-96764718D01*
X138823214Y-96840354D01*
X138743908Y-96920472D01*
X138665725Y-97000574D01*
X138593093Y-97076164D01*
X138530441Y-97142745D01*
X138482197Y-97195818D01*
X138452790Y-97230887D01*
X138445759Y-97242623D01*
X138455877Y-97264260D01*
X138484241Y-97311662D01*
X138527871Y-97380193D01*
X138583782Y-97465215D01*
X138648994Y-97562093D01*
X138686781Y-97617350D01*
X138755657Y-97718248D01*
X138816860Y-97809299D01*
X138867422Y-97885970D01*
X138904372Y-97943728D01*
X138924742Y-97978043D01*
X138927803Y-97985254D01*
X138920864Y-98005748D01*
X138901949Y-98053513D01*
X138873913Y-98121832D01*
X138839609Y-98203989D01*
X138801891Y-98293270D01*
X138763613Y-98382958D01*
X138727630Y-98466338D01*
X138696794Y-98536694D01*
X138673961Y-98587310D01*
X138661983Y-98611471D01*
X138661276Y-98612422D01*
X138642469Y-98617036D01*
X138592382Y-98627328D01*
X138516207Y-98642287D01*
X138419135Y-98660901D01*
X138306357Y-98682159D01*
X138240558Y-98694418D01*
X138120050Y-98717362D01*
X138011203Y-98739195D01*
X137919524Y-98758722D01*
X137850519Y-98774748D01*
X137809696Y-98786079D01*
X137801489Y-98789674D01*
X137793452Y-98814006D01*
X137786967Y-98868959D01*
X137782030Y-98948108D01*
X137778636Y-99045026D01*
X137776782Y-99153287D01*
X137776462Y-99266465D01*
X137777673Y-99378135D01*
X137780410Y-99481868D01*
X137784669Y-99571241D01*
X137790445Y-99639826D01*
X137797733Y-99681197D01*
X137802105Y-99689810D01*
X137828236Y-99700133D01*
X137883607Y-99714892D01*
X137960893Y-99732352D01*
X138052770Y-99750780D01*
X138084842Y-99756741D01*
X138239476Y-99785066D01*
X138361625Y-99807876D01*
X138455327Y-99826080D01*
X138524616Y-99840583D01*
X138573529Y-99852292D01*
X138606103Y-99862115D01*
X138626372Y-99870956D01*
X138638374Y-99879724D01*
X138640053Y-99881457D01*
X138656816Y-99909371D01*
X138682386Y-99963695D01*
X138714212Y-100037777D01*
X138749740Y-100124965D01*
X138786417Y-100218608D01*
X138821689Y-100312052D01*
X138853004Y-100398647D01*
X138877807Y-100471740D01*
X138893546Y-100524678D01*
X138897668Y-100550811D01*
X138897324Y-100551726D01*
X138883359Y-100573086D01*
X138851678Y-100620084D01*
X138805609Y-100687827D01*
X138748482Y-100771423D01*
X138683627Y-100865982D01*
X138665157Y-100892854D01*
X138599301Y-100990275D01*
X138541350Y-101079163D01*
X138494462Y-101154412D01*
X138461793Y-101210920D01*
X138446500Y-101243581D01*
X138445759Y-101247593D01*
X138458608Y-101268684D01*
X138494112Y-101310464D01*
X138547707Y-101368445D01*
X138614829Y-101438135D01*
X138690913Y-101515045D01*
X138771396Y-101594683D01*
X138851713Y-101672561D01*
X138927301Y-101744186D01*
X138993595Y-101805070D01*
X139046031Y-101850721D01*
X139080045Y-101876650D01*
X139089455Y-101880883D01*
X139111357Y-101870912D01*
X139156200Y-101844020D01*
X139216679Y-101804736D01*
X139263211Y-101773117D01*
X139347525Y-101715098D01*
X139447374Y-101646784D01*
X139547527Y-101578579D01*
X139601373Y-101542075D01*
X139783629Y-101418800D01*
X139936619Y-101501520D01*
X140006318Y-101537759D01*
X140065586Y-101565926D01*
X140105689Y-101581991D01*
X140115897Y-101584226D01*
X140128171Y-101567722D01*
X140152387Y-101521082D01*
X140186737Y-101448609D01*
X140229412Y-101354606D01*
X140278606Y-101243374D01*
X140332510Y-101119215D01*
X140389316Y-100986432D01*
X140447218Y-100849327D01*
X140504407Y-100712202D01*
X140559076Y-100579358D01*
X140609416Y-100455098D01*
X140653620Y-100343725D01*
X140689881Y-100249539D01*
X140716391Y-100176844D01*
X140731342Y-100129941D01*
X140733746Y-100113833D01*
X140714689Y-100093286D01*
X140672964Y-100059933D01*
X140617294Y-100020702D01*
X140612622Y-100017599D01*
X140468736Y-99902423D01*
X140352717Y-99768053D01*
X140265570Y-99618784D01*
X140208301Y-99458913D01*
X140181914Y-99292737D01*
X140187415Y-99124552D01*
X140225810Y-98958655D01*
X140298105Y-98799342D01*
X140319374Y-98764487D01*
X140430004Y-98623737D01*
X140560698Y-98510714D01*
X140706936Y-98426003D01*
X140864192Y-98370194D01*
X141027943Y-98343874D01*
X141193667Y-98347630D01*
X141356838Y-98382050D01*
X141512935Y-98447723D01*
X141657433Y-98545235D01*
X141702131Y-98584813D01*
X141815888Y-98708703D01*
X141898782Y-98839124D01*
X141955644Y-98985315D01*
X141987313Y-99130088D01*
X141995131Y-99292860D01*
X141969062Y-99456440D01*
X141911755Y-99615298D01*
X141825856Y-99763906D01*
X141714014Y-99896735D01*
X141578877Y-100008256D01*
X141561117Y-100020011D01*
X141504850Y-100058508D01*
X141462077Y-100091863D01*
X141441628Y-100113160D01*
X141441331Y-100113833D01*
X141445721Y-100136871D01*
X141463124Y-100189157D01*
X141491732Y-100266390D01*
X141529735Y-100364268D01*
X141575326Y-100478491D01*
X141626697Y-100604758D01*
X141682038Y-100738767D01*
X141739542Y-100876218D01*
X141797399Y-101012808D01*
X141853802Y-101144237D01*
X141906942Y-101266205D01*
X141955010Y-101374409D01*
X141996199Y-101464549D01*
X142028699Y-101532323D01*
X142050703Y-101573430D01*
X142059564Y-101584226D01*
X142086640Y-101575819D01*
X142137303Y-101553272D01*
X142202817Y-101520613D01*
X142238841Y-101501520D01*
X142391832Y-101418800D01*
X142574088Y-101542075D01*
X142667125Y-101605228D01*
X142768985Y-101674727D01*
X142864438Y-101740165D01*
X142912250Y-101773117D01*
X142979495Y-101818273D01*
X143036436Y-101854057D01*
X143075646Y-101875938D01*
X143088381Y-101880563D01*
X143106917Y-101868085D01*
X143147941Y-101833252D01*
X143207475Y-101779678D01*
X143281542Y-101710983D01*
X143366165Y-101630781D01*
X143419685Y-101579286D01*
X143513319Y-101487286D01*
X143594241Y-101404999D01*
X143659177Y-101335945D01*
X143704858Y-101283644D01*
X143728011Y-101251616D01*
X143730232Y-101245116D01*
X143719924Y-101220394D01*
X143691439Y-101170405D01*
X143647937Y-101100212D01*
X143592577Y-101014875D01*
X143528520Y-100919456D01*
X143510303Y-100892854D01*
X143443927Y-100796167D01*
X143384378Y-100709117D01*
X143334984Y-100636595D01*
X143299075Y-100583493D01*
X143279981Y-100554703D01*
X143278136Y-100551726D01*
X143280895Y-100528782D01*
X143295538Y-100478336D01*
X143319513Y-100407041D01*
X143350266Y-100321547D01*
X143385244Y-100228507D01*
X143421893Y-100134574D01*
X143457661Y-100046399D01*
X143489994Y-99970634D01*
X143516338Y-99913931D01*
X143534142Y-99882943D01*
X143535407Y-99881457D01*
X143546294Y-99872601D01*
X143564682Y-99863843D01*
X143594606Y-99854277D01*
X143640103Y-99842996D01*
X143705209Y-99829093D01*
X143793961Y-99811663D01*
X143910393Y-99789798D01*
X144058542Y-99762591D01*
X144090618Y-99756741D01*
X144185686Y-99738374D01*
X144268565Y-99720405D01*
X144331930Y-99704569D01*
X144368458Y-99692600D01*
X144373356Y-99689810D01*
X144381427Y-99665072D01*
X144387987Y-99609790D01*
X144393033Y-99530389D01*
X144396559Y-99433296D01*
X144398561Y-99324938D01*
X144399036Y-99211740D01*
X144397977Y-99100128D01*
X144395382Y-98996529D01*
X144391246Y-98907368D01*
X144385563Y-98839072D01*
X144378331Y-98798066D01*
X144373971Y-98789674D01*
X144349698Y-98781208D01*
X144294426Y-98767435D01*
X144213662Y-98749550D01*
X144112912Y-98728748D01*
X143997683Y-98706223D01*
X143934902Y-98694418D01*
X143815787Y-98672151D01*
X143709565Y-98651979D01*
X143621427Y-98634915D01*
X143556566Y-98621969D01*
X143520174Y-98614155D01*
X143514184Y-98612422D01*
X143504061Y-98592890D01*
X143482662Y-98545843D01*
X143452839Y-98478003D01*
X143417445Y-98396091D01*
X143379332Y-98306828D01*
X143341353Y-98216935D01*
X143306360Y-98133135D01*
X143277206Y-98062147D01*
X143256743Y-98010694D01*
X143247823Y-97985497D01*
X143247657Y-97984396D01*
X143257769Y-97964519D01*
X143286117Y-97918777D01*
X143329723Y-97851717D01*
X143385606Y-97767884D01*
X143450787Y-97671826D01*
X143488679Y-97616650D01*
X143557725Y-97515481D01*
X143619050Y-97423630D01*
X143669663Y-97345744D01*
X143706571Y-97286469D01*
X143726782Y-97250451D01*
X143729701Y-97242377D01*
X143717153Y-97223584D01*
X143682463Y-97183457D01*
X143630063Y-97126493D01*
X143564384Y-97057185D01*
X143489856Y-96980031D01*
X143410913Y-96899525D01*
X143331983Y-96820163D01*
X143257500Y-96746440D01*
X143191894Y-96682852D01*
X143139596Y-96633894D01*
X143105039Y-96604061D01*
X143093478Y-96596942D01*
X143074654Y-96606953D01*
X143029631Y-96635078D01*
X142962787Y-96678454D01*
X142878499Y-96734218D01*
X142781144Y-96799506D01*
X142707707Y-96849246D01*
X142336667Y-97101551D01*
X141718095Y-96846555D01*
X141634275Y-96401931D01*
X141550454Y-95957307D01*
X140625006Y-95957307D01*
X140541186Y-96401931D01*
G04 #@! TD*
M02*
