G04 #@! TF.GenerationSoftware,KiCad,Pcbnew,(5.0.2)-1*
G04 #@! TF.CreationDate,2018-12-29T13:39:34-05:00*
G04 #@! TF.ProjectId,8P8C+LED_Horizontal_with_mounts,38503843-2b4c-4454-945f-486f72697a6f,rev?*
G04 #@! TF.SameCoordinates,Original*
G04 #@! TF.FileFunction,Soldermask,Bot*
G04 #@! TF.FilePolarity,Negative*
%FSLAX46Y46*%
G04 Gerber Fmt 4.6, Leading zero omitted, Abs format (unit mm)*
G04 Created by KiCad (PCBNEW (5.0.2)-1) date 12/29/2018 1:39:34 PM*
%MOMM*%
%LPD*%
G01*
G04 APERTURE LIST*
%ADD10C,0.100000*%
G04 APERTURE END LIST*
D10*
G36*
X142350443Y-115691519D02*
X142416627Y-115698037D01*
X142529853Y-115732384D01*
X142586467Y-115749557D01*
X142725087Y-115823652D01*
X142742991Y-115833222D01*
X142778729Y-115862552D01*
X142880186Y-115945814D01*
X142963448Y-116047271D01*
X142992778Y-116083009D01*
X142992779Y-116083011D01*
X143076443Y-116239533D01*
X143076443Y-116239534D01*
X143127963Y-116409373D01*
X143145359Y-116586000D01*
X143127963Y-116762627D01*
X143093616Y-116875853D01*
X143076443Y-116932467D01*
X143002348Y-117071087D01*
X142992778Y-117088991D01*
X142963448Y-117124729D01*
X142880186Y-117226186D01*
X142778729Y-117309448D01*
X142742991Y-117338778D01*
X142742989Y-117338779D01*
X142586467Y-117422443D01*
X142529853Y-117439616D01*
X142416627Y-117473963D01*
X142350442Y-117480482D01*
X142284260Y-117487000D01*
X142195740Y-117487000D01*
X142129558Y-117480482D01*
X142063373Y-117473963D01*
X141950147Y-117439616D01*
X141893533Y-117422443D01*
X141737011Y-117338779D01*
X141737009Y-117338778D01*
X141701271Y-117309448D01*
X141599814Y-117226186D01*
X141516552Y-117124729D01*
X141487222Y-117088991D01*
X141477652Y-117071087D01*
X141403557Y-116932467D01*
X141386384Y-116875853D01*
X141352037Y-116762627D01*
X141334641Y-116586000D01*
X141352037Y-116409373D01*
X141403557Y-116239534D01*
X141403557Y-116239533D01*
X141487221Y-116083011D01*
X141487222Y-116083009D01*
X141516552Y-116047271D01*
X141599814Y-115945814D01*
X141701271Y-115862552D01*
X141737009Y-115833222D01*
X141754913Y-115823652D01*
X141893533Y-115749557D01*
X141950147Y-115732384D01*
X142063373Y-115698037D01*
X142129557Y-115691519D01*
X142195740Y-115685000D01*
X142284260Y-115685000D01*
X142350443Y-115691519D01*
X142350443Y-115691519D01*
G37*
G36*
X139810443Y-115691519D02*
X139876627Y-115698037D01*
X139989853Y-115732384D01*
X140046467Y-115749557D01*
X140185087Y-115823652D01*
X140202991Y-115833222D01*
X140238729Y-115862552D01*
X140340186Y-115945814D01*
X140423448Y-116047271D01*
X140452778Y-116083009D01*
X140452779Y-116083011D01*
X140536443Y-116239533D01*
X140536443Y-116239534D01*
X140587963Y-116409373D01*
X140605359Y-116586000D01*
X140587963Y-116762627D01*
X140553616Y-116875853D01*
X140536443Y-116932467D01*
X140462348Y-117071087D01*
X140452778Y-117088991D01*
X140423448Y-117124729D01*
X140340186Y-117226186D01*
X140238729Y-117309448D01*
X140202991Y-117338778D01*
X140202989Y-117338779D01*
X140046467Y-117422443D01*
X139989853Y-117439616D01*
X139876627Y-117473963D01*
X139810442Y-117480482D01*
X139744260Y-117487000D01*
X139655740Y-117487000D01*
X139589558Y-117480482D01*
X139523373Y-117473963D01*
X139410147Y-117439616D01*
X139353533Y-117422443D01*
X139197011Y-117338779D01*
X139197009Y-117338778D01*
X139161271Y-117309448D01*
X139059814Y-117226186D01*
X138976552Y-117124729D01*
X138947222Y-117088991D01*
X138937652Y-117071087D01*
X138863557Y-116932467D01*
X138846384Y-116875853D01*
X138812037Y-116762627D01*
X138794641Y-116586000D01*
X138812037Y-116409373D01*
X138863557Y-116239534D01*
X138863557Y-116239533D01*
X138947221Y-116083011D01*
X138947222Y-116083009D01*
X138976552Y-116047271D01*
X139059814Y-115945814D01*
X139161271Y-115862552D01*
X139197009Y-115833222D01*
X139214913Y-115823652D01*
X139353533Y-115749557D01*
X139410147Y-115732384D01*
X139523373Y-115698037D01*
X139589557Y-115691519D01*
X139655740Y-115685000D01*
X139744260Y-115685000D01*
X139810443Y-115691519D01*
X139810443Y-115691519D01*
G37*
G36*
X137270443Y-115691519D02*
X137336627Y-115698037D01*
X137449853Y-115732384D01*
X137506467Y-115749557D01*
X137645087Y-115823652D01*
X137662991Y-115833222D01*
X137698729Y-115862552D01*
X137800186Y-115945814D01*
X137883448Y-116047271D01*
X137912778Y-116083009D01*
X137912779Y-116083011D01*
X137996443Y-116239533D01*
X137996443Y-116239534D01*
X138047963Y-116409373D01*
X138065359Y-116586000D01*
X138047963Y-116762627D01*
X138013616Y-116875853D01*
X137996443Y-116932467D01*
X137922348Y-117071087D01*
X137912778Y-117088991D01*
X137883448Y-117124729D01*
X137800186Y-117226186D01*
X137698729Y-117309448D01*
X137662991Y-117338778D01*
X137662989Y-117338779D01*
X137506467Y-117422443D01*
X137449853Y-117439616D01*
X137336627Y-117473963D01*
X137270442Y-117480482D01*
X137204260Y-117487000D01*
X137115740Y-117487000D01*
X137049558Y-117480482D01*
X136983373Y-117473963D01*
X136870147Y-117439616D01*
X136813533Y-117422443D01*
X136657011Y-117338779D01*
X136657009Y-117338778D01*
X136621271Y-117309448D01*
X136519814Y-117226186D01*
X136436552Y-117124729D01*
X136407222Y-117088991D01*
X136397652Y-117071087D01*
X136323557Y-116932467D01*
X136306384Y-116875853D01*
X136272037Y-116762627D01*
X136254641Y-116586000D01*
X136272037Y-116409373D01*
X136323557Y-116239534D01*
X136323557Y-116239533D01*
X136407221Y-116083011D01*
X136407222Y-116083009D01*
X136436552Y-116047271D01*
X136519814Y-115945814D01*
X136621271Y-115862552D01*
X136657009Y-115833222D01*
X136674913Y-115823652D01*
X136813533Y-115749557D01*
X136870147Y-115732384D01*
X136983373Y-115698037D01*
X137049557Y-115691519D01*
X137115740Y-115685000D01*
X137204260Y-115685000D01*
X137270443Y-115691519D01*
X137270443Y-115691519D01*
G37*
G36*
X135521000Y-117487000D02*
X133719000Y-117487000D01*
X133719000Y-115685000D01*
X135521000Y-115685000D01*
X135521000Y-117487000D01*
X135521000Y-117487000D01*
G37*
G36*
X147430443Y-115691519D02*
X147496627Y-115698037D01*
X147609853Y-115732384D01*
X147666467Y-115749557D01*
X147805087Y-115823652D01*
X147822991Y-115833222D01*
X147858729Y-115862552D01*
X147960186Y-115945814D01*
X148043448Y-116047271D01*
X148072778Y-116083009D01*
X148072779Y-116083011D01*
X148156443Y-116239533D01*
X148156443Y-116239534D01*
X148207963Y-116409373D01*
X148225359Y-116586000D01*
X148207963Y-116762627D01*
X148173616Y-116875853D01*
X148156443Y-116932467D01*
X148082348Y-117071087D01*
X148072778Y-117088991D01*
X148043448Y-117124729D01*
X147960186Y-117226186D01*
X147858729Y-117309448D01*
X147822991Y-117338778D01*
X147822989Y-117338779D01*
X147666467Y-117422443D01*
X147609853Y-117439616D01*
X147496627Y-117473963D01*
X147430442Y-117480482D01*
X147364260Y-117487000D01*
X147275740Y-117487000D01*
X147209558Y-117480482D01*
X147143373Y-117473963D01*
X147030147Y-117439616D01*
X146973533Y-117422443D01*
X146817011Y-117338779D01*
X146817009Y-117338778D01*
X146781271Y-117309448D01*
X146679814Y-117226186D01*
X146596552Y-117124729D01*
X146567222Y-117088991D01*
X146557652Y-117071087D01*
X146483557Y-116932467D01*
X146466384Y-116875853D01*
X146432037Y-116762627D01*
X146414641Y-116586000D01*
X146432037Y-116409373D01*
X146483557Y-116239534D01*
X146483557Y-116239533D01*
X146567221Y-116083011D01*
X146567222Y-116083009D01*
X146596552Y-116047271D01*
X146679814Y-115945814D01*
X146781271Y-115862552D01*
X146817009Y-115833222D01*
X146834913Y-115823652D01*
X146973533Y-115749557D01*
X147030147Y-115732384D01*
X147143373Y-115698037D01*
X147209557Y-115691519D01*
X147275740Y-115685000D01*
X147364260Y-115685000D01*
X147430443Y-115691519D01*
X147430443Y-115691519D01*
G37*
G36*
X144890443Y-115691519D02*
X144956627Y-115698037D01*
X145069853Y-115732384D01*
X145126467Y-115749557D01*
X145265087Y-115823652D01*
X145282991Y-115833222D01*
X145318729Y-115862552D01*
X145420186Y-115945814D01*
X145503448Y-116047271D01*
X145532778Y-116083009D01*
X145532779Y-116083011D01*
X145616443Y-116239533D01*
X145616443Y-116239534D01*
X145667963Y-116409373D01*
X145685359Y-116586000D01*
X145667963Y-116762627D01*
X145633616Y-116875853D01*
X145616443Y-116932467D01*
X145542348Y-117071087D01*
X145532778Y-117088991D01*
X145503448Y-117124729D01*
X145420186Y-117226186D01*
X145318729Y-117309448D01*
X145282991Y-117338778D01*
X145282989Y-117338779D01*
X145126467Y-117422443D01*
X145069853Y-117439616D01*
X144956627Y-117473963D01*
X144890442Y-117480482D01*
X144824260Y-117487000D01*
X144735740Y-117487000D01*
X144669558Y-117480482D01*
X144603373Y-117473963D01*
X144490147Y-117439616D01*
X144433533Y-117422443D01*
X144277011Y-117338779D01*
X144277009Y-117338778D01*
X144241271Y-117309448D01*
X144139814Y-117226186D01*
X144056552Y-117124729D01*
X144027222Y-117088991D01*
X144017652Y-117071087D01*
X143943557Y-116932467D01*
X143926384Y-116875853D01*
X143892037Y-116762627D01*
X143874641Y-116586000D01*
X143892037Y-116409373D01*
X143943557Y-116239534D01*
X143943557Y-116239533D01*
X144027221Y-116083011D01*
X144027222Y-116083009D01*
X144056552Y-116047271D01*
X144139814Y-115945814D01*
X144241271Y-115862552D01*
X144277009Y-115833222D01*
X144294913Y-115823652D01*
X144433533Y-115749557D01*
X144490147Y-115732384D01*
X144603373Y-115698037D01*
X144669557Y-115691519D01*
X144735740Y-115685000D01*
X144824260Y-115685000D01*
X144890443Y-115691519D01*
X144890443Y-115691519D01*
G37*
G36*
X147931871Y-105703408D02*
X148236883Y-105829748D01*
X148509538Y-106011930D01*
X148511390Y-106013168D01*
X148744832Y-106246610D01*
X148744834Y-106246613D01*
X148928252Y-106521117D01*
X149054592Y-106826129D01*
X149119000Y-107149928D01*
X149119000Y-107480072D01*
X149054592Y-107803871D01*
X148928252Y-108108883D01*
X148806566Y-108290999D01*
X148744832Y-108383390D01*
X148511390Y-108616832D01*
X148511387Y-108616834D01*
X148236883Y-108800252D01*
X147931871Y-108926592D01*
X147608072Y-108991000D01*
X147277928Y-108991000D01*
X146954129Y-108926592D01*
X146649117Y-108800252D01*
X146374613Y-108616834D01*
X146374610Y-108616832D01*
X146141168Y-108383390D01*
X146079434Y-108290999D01*
X145957748Y-108108883D01*
X145831408Y-107803871D01*
X145767000Y-107480072D01*
X145767000Y-107149928D01*
X145831408Y-106826129D01*
X145957748Y-106521117D01*
X146141166Y-106246613D01*
X146141168Y-106246610D01*
X146374610Y-106013168D01*
X146376462Y-106011930D01*
X146649117Y-105829748D01*
X146954129Y-105703408D01*
X147277928Y-105639000D01*
X147608072Y-105639000D01*
X147931871Y-105703408D01*
X147931871Y-105703408D01*
G37*
G36*
X135231871Y-105703408D02*
X135536883Y-105829748D01*
X135809538Y-106011930D01*
X135811390Y-106013168D01*
X136044832Y-106246610D01*
X136044834Y-106246613D01*
X136228252Y-106521117D01*
X136354592Y-106826129D01*
X136419000Y-107149928D01*
X136419000Y-107480072D01*
X136354592Y-107803871D01*
X136228252Y-108108883D01*
X136106566Y-108290999D01*
X136044832Y-108383390D01*
X135811390Y-108616832D01*
X135811387Y-108616834D01*
X135536883Y-108800252D01*
X135231871Y-108926592D01*
X134908072Y-108991000D01*
X134577928Y-108991000D01*
X134254129Y-108926592D01*
X133949117Y-108800252D01*
X133674613Y-108616834D01*
X133674610Y-108616832D01*
X133441168Y-108383390D01*
X133379434Y-108290999D01*
X133257748Y-108108883D01*
X133131408Y-107803871D01*
X133067000Y-107480072D01*
X133067000Y-107149928D01*
X133131408Y-106826129D01*
X133257748Y-106521117D01*
X133441166Y-106246613D01*
X133441168Y-106246610D01*
X133674610Y-106013168D01*
X133676462Y-106011930D01*
X133949117Y-105829748D01*
X134254129Y-105703408D01*
X134577928Y-105639000D01*
X134908072Y-105639000D01*
X135231871Y-105703408D01*
X135231871Y-105703408D01*
G37*
G36*
X130036153Y-102194000D02*
X130488282Y-102283934D01*
X131079926Y-102529001D01*
X131480073Y-102796371D01*
X131612395Y-102884786D01*
X131957223Y-103229614D01*
X131976165Y-103245160D01*
X131997776Y-103256711D01*
X132021225Y-103263824D01*
X132045611Y-103266226D01*
X132069997Y-103263824D01*
X132093446Y-103256711D01*
X132115057Y-103245160D01*
X132133999Y-103229614D01*
X132142936Y-103218725D01*
X132293024Y-103068637D01*
X132465166Y-102953615D01*
X132656435Y-102874389D01*
X132859484Y-102834000D01*
X133066516Y-102834000D01*
X133269565Y-102874389D01*
X133460834Y-102953615D01*
X133632976Y-103068637D01*
X133779363Y-103215024D01*
X133894385Y-103387166D01*
X133973611Y-103578435D01*
X134014000Y-103781484D01*
X134014000Y-103988516D01*
X133973611Y-104191565D01*
X133894385Y-104382834D01*
X133779363Y-104554976D01*
X133632976Y-104701363D01*
X133460834Y-104816385D01*
X133269565Y-104895611D01*
X133066516Y-104936000D01*
X132912719Y-104936000D01*
X132888333Y-104938402D01*
X132864884Y-104945515D01*
X132843273Y-104957066D01*
X132824331Y-104972612D01*
X132808785Y-104991554D01*
X132797234Y-105013165D01*
X132790121Y-105036614D01*
X132787719Y-105061000D01*
X132790120Y-105085381D01*
X132791000Y-105089804D01*
X132791000Y-105730197D01*
X132734714Y-106013166D01*
X132666066Y-106358282D01*
X132420999Y-106949926D01*
X132173265Y-107320685D01*
X132065214Y-107482395D01*
X131612395Y-107935214D01*
X131612392Y-107935216D01*
X131079926Y-108290999D01*
X130488282Y-108536066D01*
X130174239Y-108598533D01*
X129860197Y-108661000D01*
X129219803Y-108661000D01*
X128905761Y-108598533D01*
X128591718Y-108536066D01*
X128000074Y-108290999D01*
X127467608Y-107935216D01*
X127467605Y-107935214D01*
X127014786Y-107482395D01*
X126906735Y-107320685D01*
X126659001Y-106949926D01*
X126413934Y-106358282D01*
X126345286Y-106013166D01*
X126289000Y-105730197D01*
X126289000Y-105089803D01*
X126395384Y-104554976D01*
X126413934Y-104461718D01*
X126659001Y-103870074D01*
X127014784Y-103337608D01*
X127014786Y-103337605D01*
X127467605Y-102884786D01*
X127599927Y-102796371D01*
X128000074Y-102529001D01*
X128591718Y-102283934D01*
X129043847Y-102194000D01*
X129219803Y-102159000D01*
X129860197Y-102159000D01*
X130036153Y-102194000D01*
X130036153Y-102194000D01*
G37*
G36*
X153036153Y-102194000D02*
X153488282Y-102283934D01*
X154079926Y-102529001D01*
X154480073Y-102796371D01*
X154612395Y-102884786D01*
X155065214Y-103337605D01*
X155065216Y-103337608D01*
X155420999Y-103870074D01*
X155666066Y-104461718D01*
X155684616Y-104554976D01*
X155791000Y-105089803D01*
X155791000Y-105730197D01*
X155734714Y-106013166D01*
X155666066Y-106358282D01*
X155420999Y-106949926D01*
X155173265Y-107320685D01*
X155065214Y-107482395D01*
X154612395Y-107935214D01*
X154612392Y-107935216D01*
X154079926Y-108290999D01*
X153488282Y-108536066D01*
X153174239Y-108598533D01*
X152860197Y-108661000D01*
X152219803Y-108661000D01*
X151905761Y-108598533D01*
X151591718Y-108536066D01*
X151000074Y-108290999D01*
X150467608Y-107935216D01*
X150467605Y-107935214D01*
X150014786Y-107482395D01*
X149906735Y-107320685D01*
X149659001Y-106949926D01*
X149413934Y-106358282D01*
X149345286Y-106013166D01*
X149289000Y-105730197D01*
X149289000Y-105089804D01*
X149289880Y-105085381D01*
X149292281Y-105061002D01*
X149289880Y-105036616D01*
X149282767Y-105013167D01*
X149271216Y-104991556D01*
X149255671Y-104972613D01*
X149236729Y-104957068D01*
X149215119Y-104945516D01*
X149191670Y-104938402D01*
X149167281Y-104936000D01*
X149119484Y-104936000D01*
X148916435Y-104895611D01*
X148725166Y-104816385D01*
X148553024Y-104701363D01*
X148406637Y-104554976D01*
X148291615Y-104382834D01*
X148212389Y-104191565D01*
X148172000Y-103988516D01*
X148172000Y-103781484D01*
X148212389Y-103578435D01*
X148291615Y-103387166D01*
X148406637Y-103215024D01*
X148553024Y-103068637D01*
X148725166Y-102953615D01*
X148916435Y-102874389D01*
X149119484Y-102834000D01*
X149326516Y-102834000D01*
X149529565Y-102874389D01*
X149720834Y-102953615D01*
X149892976Y-103068637D01*
X149999977Y-103175638D01*
X150018919Y-103191184D01*
X150040530Y-103202735D01*
X150063979Y-103209848D01*
X150088365Y-103212250D01*
X150112751Y-103209848D01*
X150136200Y-103202735D01*
X150157811Y-103191184D01*
X150176753Y-103175638D01*
X150467605Y-102884786D01*
X150599927Y-102796371D01*
X151000074Y-102529001D01*
X151591718Y-102283934D01*
X152043847Y-102194000D01*
X152219803Y-102159000D01*
X152860197Y-102159000D01*
X153036153Y-102194000D01*
X153036153Y-102194000D01*
G37*
G36*
X138766643Y-104004781D02*
X138912415Y-104065162D01*
X139043611Y-104152824D01*
X139155176Y-104264389D01*
X139242838Y-104395585D01*
X139303219Y-104541357D01*
X139334000Y-104696107D01*
X139334000Y-104853893D01*
X139303219Y-105008643D01*
X139242838Y-105154415D01*
X139155176Y-105285611D01*
X139043611Y-105397176D01*
X138912415Y-105484838D01*
X138766643Y-105545219D01*
X138611893Y-105576000D01*
X138454107Y-105576000D01*
X138299357Y-105545219D01*
X138153585Y-105484838D01*
X138022389Y-105397176D01*
X137910824Y-105285611D01*
X137823162Y-105154415D01*
X137762781Y-105008643D01*
X137732000Y-104853893D01*
X137732000Y-104696107D01*
X137762781Y-104541357D01*
X137823162Y-104395585D01*
X137910824Y-104264389D01*
X138022389Y-104152824D01*
X138153585Y-104065162D01*
X138299357Y-104004781D01*
X138454107Y-103974000D01*
X138611893Y-103974000D01*
X138766643Y-104004781D01*
X138766643Y-104004781D01*
G37*
G36*
X140806643Y-104004781D02*
X140952415Y-104065162D01*
X141083611Y-104152824D01*
X141195176Y-104264389D01*
X141282838Y-104395585D01*
X141343219Y-104541357D01*
X141374000Y-104696107D01*
X141374000Y-104853893D01*
X141343219Y-105008643D01*
X141282838Y-105154415D01*
X141195176Y-105285611D01*
X141083611Y-105397176D01*
X140952415Y-105484838D01*
X140806643Y-105545219D01*
X140651893Y-105576000D01*
X140494107Y-105576000D01*
X140339357Y-105545219D01*
X140193585Y-105484838D01*
X140062389Y-105397176D01*
X139950824Y-105285611D01*
X139863162Y-105154415D01*
X139802781Y-105008643D01*
X139772000Y-104853893D01*
X139772000Y-104696107D01*
X139802781Y-104541357D01*
X139863162Y-104395585D01*
X139950824Y-104264389D01*
X140062389Y-104152824D01*
X140193585Y-104065162D01*
X140339357Y-104004781D01*
X140494107Y-103974000D01*
X140651893Y-103974000D01*
X140806643Y-104004781D01*
X140806643Y-104004781D01*
G37*
G36*
X142846643Y-104004781D02*
X142992415Y-104065162D01*
X143123611Y-104152824D01*
X143235176Y-104264389D01*
X143322838Y-104395585D01*
X143383219Y-104541357D01*
X143414000Y-104696107D01*
X143414000Y-104853893D01*
X143383219Y-105008643D01*
X143322838Y-105154415D01*
X143235176Y-105285611D01*
X143123611Y-105397176D01*
X142992415Y-105484838D01*
X142846643Y-105545219D01*
X142691893Y-105576000D01*
X142534107Y-105576000D01*
X142379357Y-105545219D01*
X142233585Y-105484838D01*
X142102389Y-105397176D01*
X141990824Y-105285611D01*
X141903162Y-105154415D01*
X141842781Y-105008643D01*
X141812000Y-104853893D01*
X141812000Y-104696107D01*
X141842781Y-104541357D01*
X141903162Y-104395585D01*
X141990824Y-104264389D01*
X142102389Y-104152824D01*
X142233585Y-104065162D01*
X142379357Y-104004781D01*
X142534107Y-103974000D01*
X142691893Y-103974000D01*
X142846643Y-104004781D01*
X142846643Y-104004781D01*
G37*
G36*
X143866643Y-102224781D02*
X144012415Y-102285162D01*
X144143611Y-102372824D01*
X144255176Y-102484389D01*
X144342838Y-102615585D01*
X144403219Y-102761357D01*
X144434000Y-102916107D01*
X144434000Y-103073893D01*
X144403219Y-103228643D01*
X144342838Y-103374415D01*
X144255176Y-103505611D01*
X144143611Y-103617176D01*
X144012417Y-103704837D01*
X143943182Y-103733515D01*
X143921572Y-103745066D01*
X143902630Y-103760612D01*
X143887084Y-103779554D01*
X143875533Y-103801165D01*
X143868420Y-103824614D01*
X143866018Y-103849000D01*
X143868420Y-103873386D01*
X143875533Y-103896836D01*
X143887084Y-103918446D01*
X143902630Y-103937388D01*
X143921572Y-103952934D01*
X143943183Y-103964485D01*
X143966632Y-103971598D01*
X143991018Y-103974000D01*
X145454000Y-103974000D01*
X145454000Y-105576000D01*
X143852000Y-105576000D01*
X143852000Y-103920444D01*
X143849598Y-103896058D01*
X143842485Y-103872609D01*
X143830934Y-103850998D01*
X143815388Y-103832056D01*
X143796446Y-103816510D01*
X143774835Y-103804959D01*
X143751386Y-103797846D01*
X143727000Y-103795444D01*
X143721352Y-103796000D01*
X143554107Y-103796000D01*
X143399357Y-103765219D01*
X143253585Y-103704838D01*
X143122389Y-103617176D01*
X143010824Y-103505611D01*
X142923162Y-103374415D01*
X142862781Y-103228643D01*
X142832000Y-103073893D01*
X142832000Y-102916107D01*
X142862781Y-102761357D01*
X142923162Y-102615585D01*
X143010824Y-102484389D01*
X143122389Y-102372824D01*
X143253585Y-102285162D01*
X143399357Y-102224781D01*
X143554107Y-102194000D01*
X143711893Y-102194000D01*
X143866643Y-102224781D01*
X143866643Y-102224781D01*
G37*
G36*
X141826643Y-102224781D02*
X141972415Y-102285162D01*
X142103611Y-102372824D01*
X142215176Y-102484389D01*
X142302838Y-102615585D01*
X142363219Y-102761357D01*
X142394000Y-102916107D01*
X142394000Y-103073893D01*
X142363219Y-103228643D01*
X142302838Y-103374415D01*
X142215176Y-103505611D01*
X142103611Y-103617176D01*
X141972415Y-103704838D01*
X141826643Y-103765219D01*
X141671893Y-103796000D01*
X141514107Y-103796000D01*
X141359357Y-103765219D01*
X141213585Y-103704838D01*
X141082389Y-103617176D01*
X140970824Y-103505611D01*
X140883162Y-103374415D01*
X140822781Y-103228643D01*
X140792000Y-103073893D01*
X140792000Y-102916107D01*
X140822781Y-102761357D01*
X140883162Y-102615585D01*
X140970824Y-102484389D01*
X141082389Y-102372824D01*
X141213585Y-102285162D01*
X141359357Y-102224781D01*
X141514107Y-102194000D01*
X141671893Y-102194000D01*
X141826643Y-102224781D01*
X141826643Y-102224781D01*
G37*
G36*
X139786643Y-102224781D02*
X139932415Y-102285162D01*
X140063611Y-102372824D01*
X140175176Y-102484389D01*
X140262838Y-102615585D01*
X140323219Y-102761357D01*
X140354000Y-102916107D01*
X140354000Y-103073893D01*
X140323219Y-103228643D01*
X140262838Y-103374415D01*
X140175176Y-103505611D01*
X140063611Y-103617176D01*
X139932415Y-103704838D01*
X139786643Y-103765219D01*
X139631893Y-103796000D01*
X139474107Y-103796000D01*
X139319357Y-103765219D01*
X139173585Y-103704838D01*
X139042389Y-103617176D01*
X138930824Y-103505611D01*
X138843162Y-103374415D01*
X138782781Y-103228643D01*
X138752000Y-103073893D01*
X138752000Y-102916107D01*
X138782781Y-102761357D01*
X138843162Y-102615585D01*
X138930824Y-102484389D01*
X139042389Y-102372824D01*
X139173585Y-102285162D01*
X139319357Y-102224781D01*
X139474107Y-102194000D01*
X139631893Y-102194000D01*
X139786643Y-102224781D01*
X139786643Y-102224781D01*
G37*
G36*
X137746643Y-102224781D02*
X137892415Y-102285162D01*
X138023611Y-102372824D01*
X138135176Y-102484389D01*
X138222838Y-102615585D01*
X138283219Y-102761357D01*
X138314000Y-102916107D01*
X138314000Y-103073893D01*
X138283219Y-103228643D01*
X138222838Y-103374415D01*
X138135176Y-103505611D01*
X138023611Y-103617176D01*
X137892415Y-103704838D01*
X137746643Y-103765219D01*
X137591893Y-103796000D01*
X137434107Y-103796000D01*
X137279357Y-103765219D01*
X137133585Y-103704838D01*
X137002389Y-103617176D01*
X136890824Y-103505611D01*
X136803162Y-103374415D01*
X136742781Y-103228643D01*
X136712000Y-103073893D01*
X136712000Y-102916107D01*
X136742781Y-102761357D01*
X136803162Y-102615585D01*
X136890824Y-102484389D01*
X137002389Y-102372824D01*
X137133585Y-102285162D01*
X137279357Y-102224781D01*
X137434107Y-102194000D01*
X137591893Y-102194000D01*
X137746643Y-102224781D01*
X137746643Y-102224781D01*
G37*
G36*
X136756643Y-97404781D02*
X136902415Y-97465162D01*
X137033611Y-97552824D01*
X137145176Y-97664389D01*
X137232838Y-97795585D01*
X137293219Y-97941357D01*
X137324000Y-98096107D01*
X137324000Y-98253893D01*
X137293219Y-98408643D01*
X137232838Y-98554415D01*
X137145176Y-98685611D01*
X137033611Y-98797176D01*
X136902415Y-98884838D01*
X136756643Y-98945219D01*
X136601893Y-98976000D01*
X136444107Y-98976000D01*
X136289357Y-98945219D01*
X136143585Y-98884838D01*
X136012389Y-98797176D01*
X135900824Y-98685611D01*
X135813162Y-98554415D01*
X135752781Y-98408643D01*
X135722000Y-98253893D01*
X135722000Y-98096107D01*
X135752781Y-97941357D01*
X135813162Y-97795585D01*
X135900824Y-97664389D01*
X136012389Y-97552824D01*
X136143585Y-97465162D01*
X136289357Y-97404781D01*
X136444107Y-97374000D01*
X136601893Y-97374000D01*
X136756643Y-97404781D01*
X136756643Y-97404781D01*
G37*
G36*
X148186643Y-97404781D02*
X148332415Y-97465162D01*
X148463611Y-97552824D01*
X148575176Y-97664389D01*
X148662838Y-97795585D01*
X148723219Y-97941357D01*
X148754000Y-98096107D01*
X148754000Y-98253893D01*
X148723219Y-98408643D01*
X148662838Y-98554415D01*
X148575176Y-98685611D01*
X148463611Y-98797176D01*
X148332415Y-98884838D01*
X148186643Y-98945219D01*
X148031893Y-98976000D01*
X147874107Y-98976000D01*
X147719357Y-98945219D01*
X147573585Y-98884838D01*
X147442389Y-98797176D01*
X147330824Y-98685611D01*
X147243162Y-98554415D01*
X147182781Y-98408643D01*
X147152000Y-98253893D01*
X147152000Y-98096107D01*
X147182781Y-97941357D01*
X147243162Y-97795585D01*
X147330824Y-97664389D01*
X147442389Y-97552824D01*
X147573585Y-97465162D01*
X147719357Y-97404781D01*
X147874107Y-97374000D01*
X148031893Y-97374000D01*
X148186643Y-97404781D01*
X148186643Y-97404781D01*
G37*
G36*
X145896643Y-97404781D02*
X146042415Y-97465162D01*
X146173611Y-97552824D01*
X146285176Y-97664389D01*
X146372838Y-97795585D01*
X146433219Y-97941357D01*
X146464000Y-98096107D01*
X146464000Y-98253893D01*
X146433219Y-98408643D01*
X146372838Y-98554415D01*
X146285176Y-98685611D01*
X146173611Y-98797176D01*
X146042415Y-98884838D01*
X145896643Y-98945219D01*
X145741893Y-98976000D01*
X145584107Y-98976000D01*
X145429357Y-98945219D01*
X145283585Y-98884838D01*
X145152389Y-98797176D01*
X145040824Y-98685611D01*
X144953162Y-98554415D01*
X144892781Y-98408643D01*
X144862000Y-98253893D01*
X144862000Y-98096107D01*
X144892781Y-97941357D01*
X144953162Y-97795585D01*
X145040824Y-97664389D01*
X145152389Y-97552824D01*
X145283585Y-97465162D01*
X145429357Y-97404781D01*
X145584107Y-97374000D01*
X145741893Y-97374000D01*
X145896643Y-97404781D01*
X145896643Y-97404781D01*
G37*
G36*
X134466643Y-97404781D02*
X134612415Y-97465162D01*
X134743611Y-97552824D01*
X134855176Y-97664389D01*
X134942838Y-97795585D01*
X135003219Y-97941357D01*
X135034000Y-98096107D01*
X135034000Y-98253893D01*
X135003219Y-98408643D01*
X134942838Y-98554415D01*
X134855176Y-98685611D01*
X134743611Y-98797176D01*
X134612415Y-98884838D01*
X134466643Y-98945219D01*
X134311893Y-98976000D01*
X134154107Y-98976000D01*
X133999357Y-98945219D01*
X133853585Y-98884838D01*
X133722389Y-98797176D01*
X133610824Y-98685611D01*
X133523162Y-98554415D01*
X133462781Y-98408643D01*
X133432000Y-98253893D01*
X133432000Y-98096107D01*
X133462781Y-97941357D01*
X133523162Y-97795585D01*
X133610824Y-97664389D01*
X133722389Y-97552824D01*
X133853585Y-97465162D01*
X133999357Y-97404781D01*
X134154107Y-97374000D01*
X134311893Y-97374000D01*
X134466643Y-97404781D01*
X134466643Y-97404781D01*
G37*
G36*
X148221000Y-94881000D02*
X146419000Y-94881000D01*
X146419000Y-93079000D01*
X148221000Y-93079000D01*
X148221000Y-94881000D01*
X148221000Y-94881000D01*
G37*
G36*
X144890443Y-93085519D02*
X144956627Y-93092037D01*
X145069853Y-93126384D01*
X145126467Y-93143557D01*
X145265087Y-93217652D01*
X145282991Y-93227222D01*
X145318729Y-93256552D01*
X145420186Y-93339814D01*
X145503448Y-93441271D01*
X145532778Y-93477009D01*
X145532779Y-93477011D01*
X145616443Y-93633533D01*
X145616443Y-93633534D01*
X145667963Y-93803373D01*
X145685359Y-93980000D01*
X145667963Y-94156627D01*
X145633616Y-94269853D01*
X145616443Y-94326467D01*
X145542348Y-94465087D01*
X145532778Y-94482991D01*
X145503448Y-94518729D01*
X145420186Y-94620186D01*
X145318729Y-94703448D01*
X145282991Y-94732778D01*
X145282989Y-94732779D01*
X145126467Y-94816443D01*
X145069853Y-94833616D01*
X144956627Y-94867963D01*
X144890443Y-94874481D01*
X144824260Y-94881000D01*
X144735740Y-94881000D01*
X144669557Y-94874481D01*
X144603373Y-94867963D01*
X144490147Y-94833616D01*
X144433533Y-94816443D01*
X144277011Y-94732779D01*
X144277009Y-94732778D01*
X144241271Y-94703448D01*
X144139814Y-94620186D01*
X144056552Y-94518729D01*
X144027222Y-94482991D01*
X144017652Y-94465087D01*
X143943557Y-94326467D01*
X143926384Y-94269853D01*
X143892037Y-94156627D01*
X143874641Y-93980000D01*
X143892037Y-93803373D01*
X143943557Y-93633534D01*
X143943557Y-93633533D01*
X144027221Y-93477011D01*
X144027222Y-93477009D01*
X144056552Y-93441271D01*
X144139814Y-93339814D01*
X144241271Y-93256552D01*
X144277009Y-93227222D01*
X144294913Y-93217652D01*
X144433533Y-93143557D01*
X144490147Y-93126384D01*
X144603373Y-93092037D01*
X144669557Y-93085519D01*
X144735740Y-93079000D01*
X144824260Y-93079000D01*
X144890443Y-93085519D01*
X144890443Y-93085519D01*
G37*
G36*
X142350443Y-93085519D02*
X142416627Y-93092037D01*
X142529853Y-93126384D01*
X142586467Y-93143557D01*
X142725087Y-93217652D01*
X142742991Y-93227222D01*
X142778729Y-93256552D01*
X142880186Y-93339814D01*
X142963448Y-93441271D01*
X142992778Y-93477009D01*
X142992779Y-93477011D01*
X143076443Y-93633533D01*
X143076443Y-93633534D01*
X143127963Y-93803373D01*
X143145359Y-93980000D01*
X143127963Y-94156627D01*
X143093616Y-94269853D01*
X143076443Y-94326467D01*
X143002348Y-94465087D01*
X142992778Y-94482991D01*
X142963448Y-94518729D01*
X142880186Y-94620186D01*
X142778729Y-94703448D01*
X142742991Y-94732778D01*
X142742989Y-94732779D01*
X142586467Y-94816443D01*
X142529853Y-94833616D01*
X142416627Y-94867963D01*
X142350443Y-94874481D01*
X142284260Y-94881000D01*
X142195740Y-94881000D01*
X142129557Y-94874481D01*
X142063373Y-94867963D01*
X141950147Y-94833616D01*
X141893533Y-94816443D01*
X141737011Y-94732779D01*
X141737009Y-94732778D01*
X141701271Y-94703448D01*
X141599814Y-94620186D01*
X141516552Y-94518729D01*
X141487222Y-94482991D01*
X141477652Y-94465087D01*
X141403557Y-94326467D01*
X141386384Y-94269853D01*
X141352037Y-94156627D01*
X141334641Y-93980000D01*
X141352037Y-93803373D01*
X141403557Y-93633534D01*
X141403557Y-93633533D01*
X141487221Y-93477011D01*
X141487222Y-93477009D01*
X141516552Y-93441271D01*
X141599814Y-93339814D01*
X141701271Y-93256552D01*
X141737009Y-93227222D01*
X141754913Y-93217652D01*
X141893533Y-93143557D01*
X141950147Y-93126384D01*
X142063373Y-93092037D01*
X142129557Y-93085519D01*
X142195740Y-93079000D01*
X142284260Y-93079000D01*
X142350443Y-93085519D01*
X142350443Y-93085519D01*
G37*
G36*
X139810443Y-93085519D02*
X139876627Y-93092037D01*
X139989853Y-93126384D01*
X140046467Y-93143557D01*
X140185087Y-93217652D01*
X140202991Y-93227222D01*
X140238729Y-93256552D01*
X140340186Y-93339814D01*
X140423448Y-93441271D01*
X140452778Y-93477009D01*
X140452779Y-93477011D01*
X140536443Y-93633533D01*
X140536443Y-93633534D01*
X140587963Y-93803373D01*
X140605359Y-93980000D01*
X140587963Y-94156627D01*
X140553616Y-94269853D01*
X140536443Y-94326467D01*
X140462348Y-94465087D01*
X140452778Y-94482991D01*
X140423448Y-94518729D01*
X140340186Y-94620186D01*
X140238729Y-94703448D01*
X140202991Y-94732778D01*
X140202989Y-94732779D01*
X140046467Y-94816443D01*
X139989853Y-94833616D01*
X139876627Y-94867963D01*
X139810443Y-94874481D01*
X139744260Y-94881000D01*
X139655740Y-94881000D01*
X139589557Y-94874481D01*
X139523373Y-94867963D01*
X139410147Y-94833616D01*
X139353533Y-94816443D01*
X139197011Y-94732779D01*
X139197009Y-94732778D01*
X139161271Y-94703448D01*
X139059814Y-94620186D01*
X138976552Y-94518729D01*
X138947222Y-94482991D01*
X138937652Y-94465087D01*
X138863557Y-94326467D01*
X138846384Y-94269853D01*
X138812037Y-94156627D01*
X138794641Y-93980000D01*
X138812037Y-93803373D01*
X138863557Y-93633534D01*
X138863557Y-93633533D01*
X138947221Y-93477011D01*
X138947222Y-93477009D01*
X138976552Y-93441271D01*
X139059814Y-93339814D01*
X139161271Y-93256552D01*
X139197009Y-93227222D01*
X139214913Y-93217652D01*
X139353533Y-93143557D01*
X139410147Y-93126384D01*
X139523373Y-93092037D01*
X139589557Y-93085519D01*
X139655740Y-93079000D01*
X139744260Y-93079000D01*
X139810443Y-93085519D01*
X139810443Y-93085519D01*
G37*
G36*
X137270443Y-93085519D02*
X137336627Y-93092037D01*
X137449853Y-93126384D01*
X137506467Y-93143557D01*
X137645087Y-93217652D01*
X137662991Y-93227222D01*
X137698729Y-93256552D01*
X137800186Y-93339814D01*
X137883448Y-93441271D01*
X137912778Y-93477009D01*
X137912779Y-93477011D01*
X137996443Y-93633533D01*
X137996443Y-93633534D01*
X138047963Y-93803373D01*
X138065359Y-93980000D01*
X138047963Y-94156627D01*
X138013616Y-94269853D01*
X137996443Y-94326467D01*
X137922348Y-94465087D01*
X137912778Y-94482991D01*
X137883448Y-94518729D01*
X137800186Y-94620186D01*
X137698729Y-94703448D01*
X137662991Y-94732778D01*
X137662989Y-94732779D01*
X137506467Y-94816443D01*
X137449853Y-94833616D01*
X137336627Y-94867963D01*
X137270443Y-94874481D01*
X137204260Y-94881000D01*
X137115740Y-94881000D01*
X137049557Y-94874481D01*
X136983373Y-94867963D01*
X136870147Y-94833616D01*
X136813533Y-94816443D01*
X136657011Y-94732779D01*
X136657009Y-94732778D01*
X136621271Y-94703448D01*
X136519814Y-94620186D01*
X136436552Y-94518729D01*
X136407222Y-94482991D01*
X136397652Y-94465087D01*
X136323557Y-94326467D01*
X136306384Y-94269853D01*
X136272037Y-94156627D01*
X136254641Y-93980000D01*
X136272037Y-93803373D01*
X136323557Y-93633534D01*
X136323557Y-93633533D01*
X136407221Y-93477011D01*
X136407222Y-93477009D01*
X136436552Y-93441271D01*
X136519814Y-93339814D01*
X136621271Y-93256552D01*
X136657009Y-93227222D01*
X136674913Y-93217652D01*
X136813533Y-93143557D01*
X136870147Y-93126384D01*
X136983373Y-93092037D01*
X137049557Y-93085519D01*
X137115740Y-93079000D01*
X137204260Y-93079000D01*
X137270443Y-93085519D01*
X137270443Y-93085519D01*
G37*
G36*
X134730443Y-93085519D02*
X134796627Y-93092037D01*
X134909853Y-93126384D01*
X134966467Y-93143557D01*
X135105087Y-93217652D01*
X135122991Y-93227222D01*
X135158729Y-93256552D01*
X135260186Y-93339814D01*
X135343448Y-93441271D01*
X135372778Y-93477009D01*
X135372779Y-93477011D01*
X135456443Y-93633533D01*
X135456443Y-93633534D01*
X135507963Y-93803373D01*
X135525359Y-93980000D01*
X135507963Y-94156627D01*
X135473616Y-94269853D01*
X135456443Y-94326467D01*
X135382348Y-94465087D01*
X135372778Y-94482991D01*
X135343448Y-94518729D01*
X135260186Y-94620186D01*
X135158729Y-94703448D01*
X135122991Y-94732778D01*
X135122989Y-94732779D01*
X134966467Y-94816443D01*
X134909853Y-94833616D01*
X134796627Y-94867963D01*
X134730443Y-94874481D01*
X134664260Y-94881000D01*
X134575740Y-94881000D01*
X134509557Y-94874481D01*
X134443373Y-94867963D01*
X134330147Y-94833616D01*
X134273533Y-94816443D01*
X134117011Y-94732779D01*
X134117009Y-94732778D01*
X134081271Y-94703448D01*
X133979814Y-94620186D01*
X133896552Y-94518729D01*
X133867222Y-94482991D01*
X133857652Y-94465087D01*
X133783557Y-94326467D01*
X133766384Y-94269853D01*
X133732037Y-94156627D01*
X133714641Y-93980000D01*
X133732037Y-93803373D01*
X133783557Y-93633534D01*
X133783557Y-93633533D01*
X133867221Y-93477011D01*
X133867222Y-93477009D01*
X133896552Y-93441271D01*
X133979814Y-93339814D01*
X134081271Y-93256552D01*
X134117009Y-93227222D01*
X134134913Y-93217652D01*
X134273533Y-93143557D01*
X134330147Y-93126384D01*
X134443373Y-93092037D01*
X134509557Y-93085519D01*
X134575740Y-93079000D01*
X134664260Y-93079000D01*
X134730443Y-93085519D01*
X134730443Y-93085519D01*
G37*
M02*
