G04 #@! TF.GenerationSoftware,KiCad,Pcbnew,(5.0.2)-1*
G04 #@! TF.CreationDate,2018-12-29T12:11:14-05:00*
G04 #@! TF.ProjectId,8P8C+LED_Horizontal,38503843-2b4c-4454-945f-486f72697a6f,rev?*
G04 #@! TF.SameCoordinates,Original*
G04 #@! TF.FileFunction,Legend,Top*
G04 #@! TF.FilePolarity,Positive*
%FSLAX46Y46*%
G04 Gerber Fmt 4.6, Leading zero omitted, Abs format (unit mm)*
G04 Created by KiCad (PCBNEW (5.0.2)-1) date 12/29/2018 12:11:14 PM*
%MOMM*%
%LPD*%
G01*
G04 APERTURE LIST*
%ADD10C,0.300000*%
%ADD11C,0.200000*%
%ADD12C,0.120000*%
G04 APERTURE END LIST*
D10*
X134112000Y-96012000D02*
X134112000Y-95504000D01*
D11*
X133335095Y-100210952D02*
X133239857Y-100163333D01*
X133192238Y-100115714D01*
X133144619Y-100020476D01*
X133144619Y-99972857D01*
X133192238Y-99877619D01*
X133239857Y-99830000D01*
X133335095Y-99782380D01*
X133525571Y-99782380D01*
X133620809Y-99830000D01*
X133668428Y-99877619D01*
X133716047Y-99972857D01*
X133716047Y-100020476D01*
X133668428Y-100115714D01*
X133620809Y-100163333D01*
X133525571Y-100210952D01*
X133335095Y-100210952D01*
X133239857Y-100258571D01*
X133192238Y-100306190D01*
X133144619Y-100401428D01*
X133144619Y-100591904D01*
X133192238Y-100687142D01*
X133239857Y-100734761D01*
X133335095Y-100782380D01*
X133525571Y-100782380D01*
X133620809Y-100734761D01*
X133668428Y-100687142D01*
X133716047Y-100591904D01*
X133716047Y-100401428D01*
X133668428Y-100306190D01*
X133620809Y-100258571D01*
X133525571Y-100210952D01*
X134144619Y-100782380D02*
X134144619Y-99782380D01*
X134525571Y-99782380D01*
X134620809Y-99830000D01*
X134668428Y-99877619D01*
X134716047Y-99972857D01*
X134716047Y-100115714D01*
X134668428Y-100210952D01*
X134620809Y-100258571D01*
X134525571Y-100306190D01*
X134144619Y-100306190D01*
X135287476Y-100210952D02*
X135192238Y-100163333D01*
X135144619Y-100115714D01*
X135097000Y-100020476D01*
X135097000Y-99972857D01*
X135144619Y-99877619D01*
X135192238Y-99830000D01*
X135287476Y-99782380D01*
X135477952Y-99782380D01*
X135573190Y-99830000D01*
X135620809Y-99877619D01*
X135668428Y-99972857D01*
X135668428Y-100020476D01*
X135620809Y-100115714D01*
X135573190Y-100163333D01*
X135477952Y-100210952D01*
X135287476Y-100210952D01*
X135192238Y-100258571D01*
X135144619Y-100306190D01*
X135097000Y-100401428D01*
X135097000Y-100591904D01*
X135144619Y-100687142D01*
X135192238Y-100734761D01*
X135287476Y-100782380D01*
X135477952Y-100782380D01*
X135573190Y-100734761D01*
X135620809Y-100687142D01*
X135668428Y-100591904D01*
X135668428Y-100401428D01*
X135620809Y-100306190D01*
X135573190Y-100258571D01*
X135477952Y-100210952D01*
X136668428Y-100687142D02*
X136620809Y-100734761D01*
X136477952Y-100782380D01*
X136382714Y-100782380D01*
X136239857Y-100734761D01*
X136144619Y-100639523D01*
X136097000Y-100544285D01*
X136049380Y-100353809D01*
X136049380Y-100210952D01*
X136097000Y-100020476D01*
X136144619Y-99925238D01*
X136239857Y-99830000D01*
X136382714Y-99782380D01*
X136477952Y-99782380D01*
X136620809Y-99830000D01*
X136668428Y-99877619D01*
X137097000Y-100401428D02*
X137858904Y-100401428D01*
X137477952Y-100782380D02*
X137477952Y-100020476D01*
X138811285Y-100782380D02*
X138335095Y-100782380D01*
X138335095Y-99782380D01*
X139144619Y-100258571D02*
X139477952Y-100258571D01*
X139620809Y-100782380D02*
X139144619Y-100782380D01*
X139144619Y-99782380D01*
X139620809Y-99782380D01*
X140049380Y-100782380D02*
X140049380Y-99782380D01*
X140287476Y-99782380D01*
X140430333Y-99830000D01*
X140525571Y-99925238D01*
X140573190Y-100020476D01*
X140620809Y-100210952D01*
X140620809Y-100353809D01*
X140573190Y-100544285D01*
X140525571Y-100639523D01*
X140430333Y-100734761D01*
X140287476Y-100782380D01*
X140049380Y-100782380D01*
X140811285Y-100877619D02*
X141573190Y-100877619D01*
X141811285Y-100782380D02*
X141811285Y-99782380D01*
X141811285Y-100258571D02*
X142382714Y-100258571D01*
X142382714Y-100782380D02*
X142382714Y-99782380D01*
X143001761Y-100782380D02*
X142906523Y-100734761D01*
X142858904Y-100687142D01*
X142811285Y-100591904D01*
X142811285Y-100306190D01*
X142858904Y-100210952D01*
X142906523Y-100163333D01*
X143001761Y-100115714D01*
X143144619Y-100115714D01*
X143239857Y-100163333D01*
X143287476Y-100210952D01*
X143335095Y-100306190D01*
X143335095Y-100591904D01*
X143287476Y-100687142D01*
X143239857Y-100734761D01*
X143144619Y-100782380D01*
X143001761Y-100782380D01*
X143763666Y-100782380D02*
X143763666Y-100115714D01*
X143763666Y-100306190D02*
X143811285Y-100210952D01*
X143858904Y-100163333D01*
X143954142Y-100115714D01*
X144049380Y-100115714D01*
X144382714Y-100782380D02*
X144382714Y-100115714D01*
X144382714Y-99782380D02*
X144335095Y-99830000D01*
X144382714Y-99877619D01*
X144430333Y-99830000D01*
X144382714Y-99782380D01*
X144382714Y-99877619D01*
X144763666Y-100115714D02*
X145287476Y-100115714D01*
X144763666Y-100782380D01*
X145287476Y-100782380D01*
X145811285Y-100782380D02*
X145716047Y-100734761D01*
X145668428Y-100687142D01*
X145620809Y-100591904D01*
X145620809Y-100306190D01*
X145668428Y-100210952D01*
X145716047Y-100163333D01*
X145811285Y-100115714D01*
X145954142Y-100115714D01*
X146049380Y-100163333D01*
X146097000Y-100210952D01*
X146144619Y-100306190D01*
X146144619Y-100591904D01*
X146097000Y-100687142D01*
X146049380Y-100734761D01*
X145954142Y-100782380D01*
X145811285Y-100782380D01*
X146573190Y-100115714D02*
X146573190Y-100782380D01*
X146573190Y-100210952D02*
X146620809Y-100163333D01*
X146716047Y-100115714D01*
X146858904Y-100115714D01*
X146954142Y-100163333D01*
X147001761Y-100258571D01*
X147001761Y-100782380D01*
X147335095Y-100115714D02*
X147716047Y-100115714D01*
X147477952Y-99782380D02*
X147477952Y-100639523D01*
X147525571Y-100734761D01*
X147620809Y-100782380D01*
X147716047Y-100782380D01*
X148477952Y-100782380D02*
X148477952Y-100258571D01*
X148430333Y-100163333D01*
X148335095Y-100115714D01*
X148144619Y-100115714D01*
X148049380Y-100163333D01*
X148477952Y-100734761D02*
X148382714Y-100782380D01*
X148144619Y-100782380D01*
X148049380Y-100734761D01*
X148001761Y-100639523D01*
X148001761Y-100544285D01*
X148049380Y-100449047D01*
X148144619Y-100401428D01*
X148382714Y-100401428D01*
X148477952Y-100353809D01*
X149097000Y-100782380D02*
X149001761Y-100734761D01*
X148954142Y-100639523D01*
X148954142Y-99782380D01*
X141224000Y-111125000D02*
X141732000Y-111125000D01*
D10*
X142817238Y-110540095D02*
X142198190Y-110540095D01*
X142136285Y-111159142D01*
X142198190Y-111097238D01*
X142322000Y-111035333D01*
X142631523Y-111035333D01*
X142755333Y-111097238D01*
X142817238Y-111159142D01*
X142879142Y-111282952D01*
X142879142Y-111592476D01*
X142817238Y-111716285D01*
X142755333Y-111778190D01*
X142631523Y-111840095D01*
X142322000Y-111840095D01*
X142198190Y-111778190D01*
X142136285Y-111716285D01*
X143312476Y-110540095D02*
X144117238Y-110540095D01*
X143683904Y-111035333D01*
X143869619Y-111035333D01*
X143993428Y-111097238D01*
X144055333Y-111159142D01*
X144117238Y-111282952D01*
X144117238Y-111592476D01*
X144055333Y-111716285D01*
X143993428Y-111778190D01*
X143869619Y-111840095D01*
X143498190Y-111840095D01*
X143374380Y-111778190D01*
X143312476Y-111716285D01*
X144860095Y-111097238D02*
X144736285Y-111035333D01*
X144674380Y-110973428D01*
X144612476Y-110849619D01*
X144612476Y-110787714D01*
X144674380Y-110663904D01*
X144736285Y-110602000D01*
X144860095Y-110540095D01*
X145107714Y-110540095D01*
X145231523Y-110602000D01*
X145293428Y-110663904D01*
X145355333Y-110787714D01*
X145355333Y-110849619D01*
X145293428Y-110973428D01*
X145231523Y-111035333D01*
X145107714Y-111097238D01*
X144860095Y-111097238D01*
X144736285Y-111159142D01*
X144674380Y-111221047D01*
X144612476Y-111344857D01*
X144612476Y-111592476D01*
X144674380Y-111716285D01*
X144736285Y-111778190D01*
X144860095Y-111840095D01*
X145107714Y-111840095D01*
X145231523Y-111778190D01*
X145293428Y-111716285D01*
X145355333Y-111592476D01*
X145355333Y-111344857D01*
X145293428Y-111221047D01*
X145231523Y-111159142D01*
X145107714Y-111097238D01*
X145788666Y-111840095D02*
X146469619Y-110973428D01*
X145788666Y-110973428D02*
X146469619Y-111840095D01*
X136195047Y-111840095D02*
X135761714Y-111221047D01*
X135452190Y-111840095D02*
X135452190Y-110540095D01*
X135947428Y-110540095D01*
X136071238Y-110602000D01*
X136133142Y-110663904D01*
X136195047Y-110787714D01*
X136195047Y-110973428D01*
X136133142Y-111097238D01*
X136071238Y-111159142D01*
X135947428Y-111221047D01*
X135452190Y-111221047D01*
X137123619Y-110540095D02*
X137123619Y-111468666D01*
X137061714Y-111654380D01*
X136937904Y-111778190D01*
X136752190Y-111840095D01*
X136628380Y-111840095D01*
X137742666Y-111840095D02*
X137742666Y-110540095D01*
X137742666Y-111159142D02*
X138485523Y-111159142D01*
X138485523Y-111840095D02*
X138485523Y-110540095D01*
X139042666Y-111778190D02*
X139228380Y-111840095D01*
X139537904Y-111840095D01*
X139661714Y-111778190D01*
X139723619Y-111716285D01*
X139785523Y-111592476D01*
X139785523Y-111468666D01*
X139723619Y-111344857D01*
X139661714Y-111282952D01*
X139537904Y-111221047D01*
X139290285Y-111159142D01*
X139166476Y-111097238D01*
X139104571Y-111035333D01*
X139042666Y-110911523D01*
X139042666Y-110787714D01*
X139104571Y-110663904D01*
X139166476Y-110602000D01*
X139290285Y-110540095D01*
X139599809Y-110540095D01*
X139785523Y-110602000D01*
X140342666Y-111159142D02*
X140776000Y-111159142D01*
X140961714Y-111840095D02*
X140342666Y-111840095D01*
X140342666Y-110540095D01*
X140961714Y-110540095D01*
X136738285Y-109420000D02*
X137309714Y-109420000D01*
X136624000Y-109762857D02*
X137024000Y-108562857D01*
X137424000Y-109762857D01*
X137824000Y-109762857D02*
X137824000Y-108562857D01*
X138224000Y-109420000D01*
X138624000Y-108562857D01*
X138624000Y-109762857D01*
X139195428Y-109762857D02*
X139195428Y-108562857D01*
X139652571Y-108562857D01*
X139766857Y-108620000D01*
X139824000Y-108677142D01*
X139881142Y-108791428D01*
X139881142Y-108962857D01*
X139824000Y-109077142D01*
X139766857Y-109134285D01*
X139652571Y-109191428D01*
X139195428Y-109191428D01*
X140395428Y-109762857D02*
X140395428Y-108562857D01*
X140395428Y-109134285D02*
X141081142Y-109134285D01*
X141081142Y-109762857D02*
X141081142Y-108562857D01*
X141652571Y-109134285D02*
X142052571Y-109134285D01*
X142224000Y-109762857D02*
X141652571Y-109762857D01*
X141652571Y-108562857D01*
X142224000Y-108562857D01*
X142738285Y-109762857D02*
X142738285Y-108562857D01*
X143424000Y-109762857D01*
X143424000Y-108562857D01*
X144224000Y-108562857D02*
X144452571Y-108562857D01*
X144566857Y-108620000D01*
X144681142Y-108734285D01*
X144738285Y-108962857D01*
X144738285Y-109362857D01*
X144681142Y-109591428D01*
X144566857Y-109705714D01*
X144452571Y-109762857D01*
X144224000Y-109762857D01*
X144109714Y-109705714D01*
X143995428Y-109591428D01*
X143938285Y-109362857D01*
X143938285Y-108962857D01*
X143995428Y-108734285D01*
X144109714Y-108620000D01*
X144224000Y-108562857D01*
X145824000Y-109762857D02*
X145252571Y-109762857D01*
X145252571Y-108562857D01*
X133858000Y-95758000D02*
X134366000Y-95758000D01*
X136398000Y-95758000D02*
X136906000Y-95758000D01*
X138938000Y-96012000D02*
X138938000Y-95504000D01*
X138684000Y-95758000D02*
X139192000Y-95758000D01*
X134874000Y-95920714D02*
X134874000Y-95206428D01*
X135374000Y-96706428D02*
X134874000Y-95920714D01*
X134374000Y-96706428D01*
X137414000Y-95920714D02*
X137414000Y-95206428D01*
X137914000Y-96706428D02*
X137414000Y-95920714D01*
X136914000Y-96706428D01*
X141224000Y-95758000D02*
X141732000Y-95758000D01*
X139815142Y-96635000D02*
X139958000Y-96706428D01*
X140172285Y-96706428D01*
X140386571Y-96635000D01*
X140529428Y-96492142D01*
X140600857Y-96349285D01*
X140672285Y-96063571D01*
X140672285Y-95849285D01*
X140600857Y-95563571D01*
X140529428Y-95420714D01*
X140386571Y-95277857D01*
X140172285Y-95206428D01*
X140029428Y-95206428D01*
X139815142Y-95277857D01*
X139743714Y-95349285D01*
X139743714Y-95849285D01*
X140029428Y-95849285D01*
X142355142Y-96635000D02*
X142498000Y-96706428D01*
X142712285Y-96706428D01*
X142926571Y-96635000D01*
X143069428Y-96492142D01*
X143140857Y-96349285D01*
X143212285Y-96063571D01*
X143212285Y-95849285D01*
X143140857Y-95563571D01*
X143069428Y-95420714D01*
X142926571Y-95277857D01*
X142712285Y-95206428D01*
X142569428Y-95206428D01*
X142355142Y-95277857D01*
X142283714Y-95349285D01*
X142283714Y-95849285D01*
X142569428Y-95849285D01*
X144922857Y-96063571D02*
X145065714Y-96135000D01*
X145137142Y-96206428D01*
X145208571Y-96349285D01*
X145208571Y-96420714D01*
X145137142Y-96563571D01*
X145065714Y-96635000D01*
X144922857Y-96706428D01*
X144637142Y-96706428D01*
X144494285Y-96635000D01*
X144422857Y-96563571D01*
X144351428Y-96420714D01*
X144351428Y-96349285D01*
X144422857Y-96206428D01*
X144494285Y-96135000D01*
X144637142Y-96063571D01*
X144922857Y-96063571D01*
X145065714Y-95992142D01*
X145137142Y-95920714D01*
X145208571Y-95777857D01*
X145208571Y-95492142D01*
X145137142Y-95349285D01*
X145065714Y-95277857D01*
X144922857Y-95206428D01*
X144637142Y-95206428D01*
X144494285Y-95277857D01*
X144422857Y-95349285D01*
X144351428Y-95492142D01*
X144351428Y-95777857D01*
X144422857Y-95920714D01*
X144494285Y-95992142D01*
X144637142Y-96063571D01*
X147820000Y-96706428D02*
X146820000Y-96706428D01*
X147462857Y-95206428D01*
X147605714Y-113478571D02*
X147320000Y-113478571D01*
X147177142Y-113550000D01*
X147105714Y-113621428D01*
X146962857Y-113835714D01*
X146891428Y-114121428D01*
X146891428Y-114692857D01*
X146962857Y-114835714D01*
X147034285Y-114907142D01*
X147177142Y-114978571D01*
X147462857Y-114978571D01*
X147605714Y-114907142D01*
X147677142Y-114835714D01*
X147748571Y-114692857D01*
X147748571Y-114335714D01*
X147677142Y-114192857D01*
X147605714Y-114121428D01*
X147462857Y-114050000D01*
X147177142Y-114050000D01*
X147034285Y-114121428D01*
X146962857Y-114192857D01*
X146891428Y-114335714D01*
X145137142Y-113478571D02*
X144422857Y-113478571D01*
X144351428Y-114192857D01*
X144422857Y-114121428D01*
X144565714Y-114050000D01*
X144922857Y-114050000D01*
X145065714Y-114121428D01*
X145137142Y-114192857D01*
X145208571Y-114335714D01*
X145208571Y-114692857D01*
X145137142Y-114835714D01*
X145065714Y-114907142D01*
X144922857Y-114978571D01*
X144565714Y-114978571D01*
X144422857Y-114907142D01*
X144351428Y-114835714D01*
X142271714Y-113978571D02*
X142271714Y-114978571D01*
X141914571Y-113407142D02*
X141557428Y-114478571D01*
X142486000Y-114478571D01*
X139200000Y-113478571D02*
X140128571Y-113478571D01*
X139628571Y-114050000D01*
X139842857Y-114050000D01*
X139985714Y-114121428D01*
X140057142Y-114192857D01*
X140128571Y-114335714D01*
X140128571Y-114692857D01*
X140057142Y-114835714D01*
X139985714Y-114907142D01*
X139842857Y-114978571D01*
X139414285Y-114978571D01*
X139271428Y-114907142D01*
X139200000Y-114835714D01*
X136731428Y-113621428D02*
X136802857Y-113550000D01*
X136945714Y-113478571D01*
X137302857Y-113478571D01*
X137445714Y-113550000D01*
X137517142Y-113621428D01*
X137588571Y-113764285D01*
X137588571Y-113907142D01*
X137517142Y-114121428D01*
X136660000Y-114978571D01*
X137588571Y-114978571D01*
X135048571Y-114978571D02*
X134191428Y-114978571D01*
X134620000Y-114978571D02*
X134620000Y-113478571D01*
X134477142Y-113692857D01*
X134334285Y-113835714D01*
X134191428Y-113907142D01*
D12*
G04 #@! TO.C,J1*
X132773000Y-96960000D02*
X132773000Y-102635000D01*
X149413000Y-96960000D02*
X149413000Y-102635000D01*
X149413000Y-96960000D02*
X132773000Y-96960000D01*
X132773000Y-112840000D02*
X132773000Y-105135000D01*
X149413000Y-112840000D02*
X149413000Y-105135000D01*
X149413000Y-112840000D02*
X132773000Y-112840000D01*
G04 #@! TD*
M02*
