G04 #@! TF.GenerationSoftware,KiCad,Pcbnew,(5.0.2)-1*
G04 #@! TF.CreationDate,2018-12-29T12:11:14-05:00*
G04 #@! TF.ProjectId,8P8C+LED_Horizontal,38503843-2b4c-4454-945f-486f72697a6f,rev?*
G04 #@! TF.SameCoordinates,Original*
G04 #@! TF.FileFunction,Legend,Bot*
G04 #@! TF.FilePolarity,Positive*
%FSLAX46Y46*%
G04 Gerber Fmt 4.6, Leading zero omitted, Abs format (unit mm)*
G04 Created by KiCad (PCBNEW (5.0.2)-1) date 12/29/2018 12:11:14 PM*
%MOMM*%
%LPD*%
G01*
G04 APERTURE LIST*
%ADD10C,0.300000*%
%ADD11C,0.120000*%
%ADD12C,0.010000*%
G04 APERTURE END LIST*
D10*
X137937714Y-101516571D02*
X137937714Y-100016571D01*
X137937714Y-100730857D02*
X137080571Y-100730857D01*
X137080571Y-101516571D02*
X137080571Y-100016571D01*
X136509142Y-100016571D02*
X136152000Y-101516571D01*
X135866285Y-100445142D01*
X135580571Y-101516571D01*
X135223428Y-100016571D01*
X146272142Y-100016571D02*
X145986428Y-100016571D01*
X145843571Y-100088000D01*
X145700714Y-100230857D01*
X145629285Y-100516571D01*
X145629285Y-101016571D01*
X145700714Y-101302285D01*
X145843571Y-101445142D01*
X145986428Y-101516571D01*
X146272142Y-101516571D01*
X146415000Y-101445142D01*
X146557857Y-101302285D01*
X146629285Y-101016571D01*
X146629285Y-100516571D01*
X146557857Y-100230857D01*
X146415000Y-100088000D01*
X146272142Y-100016571D01*
X145057857Y-101445142D02*
X144843571Y-101516571D01*
X144486428Y-101516571D01*
X144343571Y-101445142D01*
X144272142Y-101373714D01*
X144200714Y-101230857D01*
X144200714Y-101088000D01*
X144272142Y-100945142D01*
X144343571Y-100873714D01*
X144486428Y-100802285D01*
X144772142Y-100730857D01*
X144915000Y-100659428D01*
X144986428Y-100588000D01*
X145057857Y-100445142D01*
X145057857Y-100302285D01*
X144986428Y-100159428D01*
X144915000Y-100088000D01*
X144772142Y-100016571D01*
X144415000Y-100016571D01*
X144200714Y-100088000D01*
X149352000Y-112903000D02*
X150114000Y-114300000D01*
X145923000Y-110998000D02*
X146685000Y-112395000D01*
X148497714Y-112843571D02*
X148212000Y-112843571D01*
X148069142Y-112915000D01*
X147926285Y-113057857D01*
X147854857Y-113343571D01*
X147854857Y-113843571D01*
X147926285Y-114129285D01*
X148069142Y-114272142D01*
X148212000Y-114343571D01*
X148497714Y-114343571D01*
X148640571Y-114272142D01*
X148783428Y-114129285D01*
X148854857Y-113843571D01*
X148854857Y-113343571D01*
X148783428Y-113057857D01*
X148640571Y-112915000D01*
X148497714Y-112843571D01*
X147283428Y-114272142D02*
X147069142Y-114343571D01*
X146712000Y-114343571D01*
X146569142Y-114272142D01*
X146497714Y-114200714D01*
X146426285Y-114057857D01*
X146426285Y-113915000D01*
X146497714Y-113772142D01*
X146569142Y-113700714D01*
X146712000Y-113629285D01*
X146997714Y-113557857D01*
X147140571Y-113486428D01*
X147212000Y-113415000D01*
X147283428Y-113272142D01*
X147283428Y-113129285D01*
X147212000Y-112986428D01*
X147140571Y-112915000D01*
X146997714Y-112843571D01*
X146640571Y-112843571D01*
X146426285Y-112915000D01*
X145783428Y-114343571D02*
X145783428Y-112843571D01*
X145783428Y-113557857D02*
X144926285Y-113557857D01*
X144926285Y-114343571D02*
X144926285Y-112843571D01*
X144354857Y-112843571D02*
X143997714Y-114343571D01*
X143712000Y-113272142D01*
X143426285Y-114343571D01*
X143069142Y-112843571D01*
X141997714Y-113557857D02*
X141783428Y-113629285D01*
X141712000Y-113700714D01*
X141640571Y-113843571D01*
X141640571Y-114057857D01*
X141712000Y-114200714D01*
X141783428Y-114272142D01*
X141926285Y-114343571D01*
X142497714Y-114343571D01*
X142497714Y-112843571D01*
X141997714Y-112843571D01*
X141854857Y-112915000D01*
X141783428Y-112986428D01*
X141712000Y-113129285D01*
X141712000Y-113272142D01*
X141783428Y-113415000D01*
X141854857Y-113486428D01*
X141997714Y-113557857D01*
X142497714Y-113557857D01*
X140997714Y-114343571D02*
X140997714Y-113343571D01*
X140997714Y-113629285D02*
X140926285Y-113486428D01*
X140854857Y-113415000D01*
X140712000Y-113343571D01*
X140569142Y-113343571D01*
X139497714Y-114272142D02*
X139640571Y-114343571D01*
X139926285Y-114343571D01*
X140069142Y-114272142D01*
X140140571Y-114129285D01*
X140140571Y-113557857D01*
X140069142Y-113415000D01*
X139926285Y-113343571D01*
X139640571Y-113343571D01*
X139497714Y-113415000D01*
X139426285Y-113557857D01*
X139426285Y-113700714D01*
X140140571Y-113843571D01*
X138140571Y-114343571D02*
X138140571Y-113557857D01*
X138212000Y-113415000D01*
X138354857Y-113343571D01*
X138640571Y-113343571D01*
X138783428Y-113415000D01*
X138140571Y-114272142D02*
X138283428Y-114343571D01*
X138640571Y-114343571D01*
X138783428Y-114272142D01*
X138854857Y-114129285D01*
X138854857Y-113986428D01*
X138783428Y-113843571D01*
X138640571Y-113772142D01*
X138283428Y-113772142D01*
X138140571Y-113700714D01*
X137426285Y-114343571D02*
X137426285Y-112843571D01*
X137283428Y-113772142D02*
X136854857Y-114343571D01*
X136854857Y-113343571D02*
X137426285Y-113915000D01*
X135997714Y-114343571D02*
X136140571Y-114272142D01*
X136212000Y-114200714D01*
X136283428Y-114057857D01*
X136283428Y-113629285D01*
X136212000Y-113486428D01*
X136140571Y-113415000D01*
X135997714Y-113343571D01*
X135783428Y-113343571D01*
X135640571Y-113415000D01*
X135569142Y-113486428D01*
X135497714Y-113629285D01*
X135497714Y-114057857D01*
X135569142Y-114200714D01*
X135640571Y-114272142D01*
X135783428Y-114343571D01*
X135997714Y-114343571D01*
X134212000Y-113343571D02*
X134212000Y-114343571D01*
X134854857Y-113343571D02*
X134854857Y-114129285D01*
X134783428Y-114272142D01*
X134640571Y-114343571D01*
X134426285Y-114343571D01*
X134283428Y-114272142D01*
X134212000Y-114200714D01*
X133712000Y-113343571D02*
X133140571Y-113343571D01*
X133497714Y-112843571D02*
X133497714Y-114129285D01*
X133426285Y-114272142D01*
X133283428Y-114343571D01*
X133140571Y-114343571D01*
X132712000Y-114272142D02*
X132569142Y-114343571D01*
X132283428Y-114343571D01*
X132140571Y-114272142D01*
X132069142Y-114129285D01*
X132069142Y-114057857D01*
X132140571Y-113915000D01*
X132283428Y-113843571D01*
X132497714Y-113843571D01*
X132640571Y-113772142D01*
X132712000Y-113629285D01*
X132712000Y-113557857D01*
X132640571Y-113415000D01*
X132497714Y-113343571D01*
X132283428Y-113343571D01*
X132140571Y-113415000D01*
X144950142Y-112311571D02*
X144950142Y-111525857D01*
X145021571Y-111383000D01*
X145164428Y-111311571D01*
X145450142Y-111311571D01*
X145593000Y-111383000D01*
X144950142Y-112240142D02*
X145093000Y-112311571D01*
X145450142Y-112311571D01*
X145593000Y-112240142D01*
X145664428Y-112097285D01*
X145664428Y-111954428D01*
X145593000Y-111811571D01*
X145450142Y-111740142D01*
X145093000Y-111740142D01*
X144950142Y-111668714D01*
X143593000Y-112311571D02*
X143593000Y-110811571D01*
X143593000Y-112240142D02*
X143735857Y-112311571D01*
X144021571Y-112311571D01*
X144164428Y-112240142D01*
X144235857Y-112168714D01*
X144307285Y-112025857D01*
X144307285Y-111597285D01*
X144235857Y-111454428D01*
X144164428Y-111383000D01*
X144021571Y-111311571D01*
X143735857Y-111311571D01*
X143593000Y-111383000D01*
X142307285Y-112240142D02*
X142450142Y-112311571D01*
X142735857Y-112311571D01*
X142878714Y-112240142D01*
X142950142Y-112097285D01*
X142950142Y-111525857D01*
X142878714Y-111383000D01*
X142735857Y-111311571D01*
X142450142Y-111311571D01*
X142307285Y-111383000D01*
X142235857Y-111525857D01*
X142235857Y-111668714D01*
X142950142Y-111811571D01*
X141593000Y-112311571D02*
X141593000Y-111311571D01*
X141593000Y-111597285D02*
X141521571Y-111454428D01*
X141450142Y-111383000D01*
X141307285Y-111311571D01*
X141164428Y-111311571D01*
X140021571Y-111311571D02*
X140021571Y-112311571D01*
X140664428Y-111311571D02*
X140664428Y-112097285D01*
X140593000Y-112240142D01*
X140450142Y-112311571D01*
X140235857Y-112311571D01*
X140093000Y-112240142D01*
X140021571Y-112168714D01*
X139378714Y-112240142D02*
X139235857Y-112311571D01*
X138950142Y-112311571D01*
X138807285Y-112240142D01*
X138735857Y-112097285D01*
X138735857Y-112025857D01*
X138807285Y-111883000D01*
X138950142Y-111811571D01*
X139164428Y-111811571D01*
X139307285Y-111740142D01*
X139378714Y-111597285D01*
X139378714Y-111525857D01*
X139307285Y-111383000D01*
X139164428Y-111311571D01*
X138950142Y-111311571D01*
X138807285Y-111383000D01*
X138093000Y-112311571D02*
X138093000Y-110811571D01*
X137450142Y-112311571D02*
X137450142Y-111525857D01*
X137521571Y-111383000D01*
X137664428Y-111311571D01*
X137878714Y-111311571D01*
X138021571Y-111383000D01*
X138093000Y-111454428D01*
X136093000Y-112311571D02*
X136093000Y-111525857D01*
X136164428Y-111383000D01*
X136307285Y-111311571D01*
X136593000Y-111311571D01*
X136735857Y-111383000D01*
X136093000Y-112240142D02*
X136235857Y-112311571D01*
X136593000Y-112311571D01*
X136735857Y-112240142D01*
X136807285Y-112097285D01*
X136807285Y-111954428D01*
X136735857Y-111811571D01*
X136593000Y-111740142D01*
X136235857Y-111740142D01*
X136093000Y-111668714D01*
X146275571Y-109406571D02*
X146275571Y-110620857D01*
X146347000Y-110763714D01*
X146418428Y-110835142D01*
X146561285Y-110906571D01*
X146775571Y-110906571D01*
X146918428Y-110835142D01*
X146275571Y-110335142D02*
X146418428Y-110406571D01*
X146704142Y-110406571D01*
X146847000Y-110335142D01*
X146918428Y-110263714D01*
X146989857Y-110120857D01*
X146989857Y-109692285D01*
X146918428Y-109549428D01*
X146847000Y-109478000D01*
X146704142Y-109406571D01*
X146418428Y-109406571D01*
X146275571Y-109478000D01*
X145561285Y-110406571D02*
X145561285Y-109406571D01*
X145561285Y-108906571D02*
X145632714Y-108978000D01*
X145561285Y-109049428D01*
X145489857Y-108978000D01*
X145561285Y-108906571D01*
X145561285Y-109049428D01*
X145061285Y-109406571D02*
X144489857Y-109406571D01*
X144847000Y-108906571D02*
X144847000Y-110192285D01*
X144775571Y-110335142D01*
X144632714Y-110406571D01*
X144489857Y-110406571D01*
X143989857Y-110406571D02*
X143989857Y-108906571D01*
X143347000Y-110406571D02*
X143347000Y-109620857D01*
X143418428Y-109478000D01*
X143561285Y-109406571D01*
X143775571Y-109406571D01*
X143918428Y-109478000D01*
X143989857Y-109549428D01*
X141989857Y-109406571D02*
X141989857Y-110406571D01*
X142632714Y-109406571D02*
X142632714Y-110192285D01*
X142561285Y-110335142D01*
X142418428Y-110406571D01*
X142204142Y-110406571D01*
X142061285Y-110335142D01*
X141989857Y-110263714D01*
X141275571Y-110406571D02*
X141275571Y-108906571D01*
X141275571Y-109478000D02*
X141132714Y-109406571D01*
X140847000Y-109406571D01*
X140704142Y-109478000D01*
X140632714Y-109549428D01*
X140561285Y-109692285D01*
X140561285Y-110120857D01*
X140632714Y-110263714D01*
X140704142Y-110335142D01*
X140847000Y-110406571D01*
X141132714Y-110406571D01*
X141275571Y-110335142D01*
X139918428Y-110263714D02*
X139847000Y-110335142D01*
X139918428Y-110406571D01*
X139989857Y-110335142D01*
X139918428Y-110263714D01*
X139918428Y-110406571D01*
X138561285Y-110335142D02*
X138704142Y-110406571D01*
X138989857Y-110406571D01*
X139132714Y-110335142D01*
X139204142Y-110263714D01*
X139275571Y-110120857D01*
X139275571Y-109692285D01*
X139204142Y-109549428D01*
X139132714Y-109478000D01*
X138989857Y-109406571D01*
X138704142Y-109406571D01*
X138561285Y-109478000D01*
X137704142Y-110406571D02*
X137847000Y-110335142D01*
X137918428Y-110263714D01*
X137989857Y-110120857D01*
X137989857Y-109692285D01*
X137918428Y-109549428D01*
X137847000Y-109478000D01*
X137704142Y-109406571D01*
X137489857Y-109406571D01*
X137347000Y-109478000D01*
X137275571Y-109549428D01*
X137204142Y-109692285D01*
X137204142Y-110120857D01*
X137275571Y-110263714D01*
X137347000Y-110335142D01*
X137489857Y-110406571D01*
X137704142Y-110406571D01*
X136561285Y-110406571D02*
X136561285Y-109406571D01*
X136561285Y-109549428D02*
X136489857Y-109478000D01*
X136347000Y-109406571D01*
X136132714Y-109406571D01*
X135989857Y-109478000D01*
X135918428Y-109620857D01*
X135918428Y-110406571D01*
X135918428Y-109620857D02*
X135847000Y-109478000D01*
X135704142Y-109406571D01*
X135489857Y-109406571D01*
X135347000Y-109478000D01*
X135275571Y-109620857D01*
X135275571Y-110406571D01*
D11*
G04 #@! TO.C,J3*
X148650000Y-95310000D02*
X148650000Y-93980000D01*
X147320000Y-95310000D02*
X148650000Y-95310000D01*
X146050000Y-95310000D02*
X146050000Y-92650000D01*
X146050000Y-92650000D02*
X133290000Y-92650000D01*
X146050000Y-95310000D02*
X133290000Y-95310000D01*
X133290000Y-95310000D02*
X133290000Y-92650000D01*
G04 #@! TO.C,J2*
X133290000Y-115256000D02*
X133290000Y-116586000D01*
X134620000Y-115256000D02*
X133290000Y-115256000D01*
X135890000Y-115256000D02*
X135890000Y-117916000D01*
X135890000Y-117916000D02*
X148650000Y-117916000D01*
X135890000Y-115256000D02*
X148650000Y-115256000D01*
X148650000Y-115256000D02*
X148650000Y-117916000D01*
D12*
G04 #@! TO.C,REF\002A\002A*
G36*
X140541186Y-96274931D02*
X140457365Y-96719555D01*
X140148080Y-96847053D01*
X139838794Y-96974551D01*
X139467754Y-96722246D01*
X139363843Y-96651996D01*
X139269913Y-96589272D01*
X139190348Y-96536938D01*
X139129530Y-96497857D01*
X139091843Y-96474893D01*
X139081579Y-96469942D01*
X139063090Y-96482676D01*
X139023580Y-96517882D01*
X138967478Y-96571062D01*
X138899213Y-96637718D01*
X138823214Y-96713354D01*
X138743908Y-96793472D01*
X138665725Y-96873574D01*
X138593093Y-96949164D01*
X138530441Y-97015745D01*
X138482197Y-97068818D01*
X138452790Y-97103887D01*
X138445759Y-97115623D01*
X138455877Y-97137260D01*
X138484241Y-97184662D01*
X138527871Y-97253193D01*
X138583782Y-97338215D01*
X138648994Y-97435093D01*
X138686781Y-97490350D01*
X138755657Y-97591248D01*
X138816860Y-97682299D01*
X138867422Y-97758970D01*
X138904372Y-97816728D01*
X138924742Y-97851043D01*
X138927803Y-97858254D01*
X138920864Y-97878748D01*
X138901949Y-97926513D01*
X138873913Y-97994832D01*
X138839609Y-98076989D01*
X138801891Y-98166270D01*
X138763613Y-98255958D01*
X138727630Y-98339338D01*
X138696794Y-98409694D01*
X138673961Y-98460310D01*
X138661983Y-98484471D01*
X138661276Y-98485422D01*
X138642469Y-98490036D01*
X138592382Y-98500328D01*
X138516207Y-98515287D01*
X138419135Y-98533901D01*
X138306357Y-98555159D01*
X138240558Y-98567418D01*
X138120050Y-98590362D01*
X138011203Y-98612195D01*
X137919524Y-98631722D01*
X137850519Y-98647748D01*
X137809696Y-98659079D01*
X137801489Y-98662674D01*
X137793452Y-98687006D01*
X137786967Y-98741959D01*
X137782030Y-98821108D01*
X137778636Y-98918026D01*
X137776782Y-99026287D01*
X137776462Y-99139465D01*
X137777673Y-99251135D01*
X137780410Y-99354868D01*
X137784669Y-99444241D01*
X137790445Y-99512826D01*
X137797733Y-99554197D01*
X137802105Y-99562810D01*
X137828236Y-99573133D01*
X137883607Y-99587892D01*
X137960893Y-99605352D01*
X138052770Y-99623780D01*
X138084842Y-99629741D01*
X138239476Y-99658066D01*
X138361625Y-99680876D01*
X138455327Y-99699080D01*
X138524616Y-99713583D01*
X138573529Y-99725292D01*
X138606103Y-99735115D01*
X138626372Y-99743956D01*
X138638374Y-99752724D01*
X138640053Y-99754457D01*
X138656816Y-99782371D01*
X138682386Y-99836695D01*
X138714212Y-99910777D01*
X138749740Y-99997965D01*
X138786417Y-100091608D01*
X138821689Y-100185052D01*
X138853004Y-100271647D01*
X138877807Y-100344740D01*
X138893546Y-100397678D01*
X138897668Y-100423811D01*
X138897324Y-100424726D01*
X138883359Y-100446086D01*
X138851678Y-100493084D01*
X138805609Y-100560827D01*
X138748482Y-100644423D01*
X138683627Y-100738982D01*
X138665157Y-100765854D01*
X138599301Y-100863275D01*
X138541350Y-100952163D01*
X138494462Y-101027412D01*
X138461793Y-101083920D01*
X138446500Y-101116581D01*
X138445759Y-101120593D01*
X138458608Y-101141684D01*
X138494112Y-101183464D01*
X138547707Y-101241445D01*
X138614829Y-101311135D01*
X138690913Y-101388045D01*
X138771396Y-101467683D01*
X138851713Y-101545561D01*
X138927301Y-101617186D01*
X138993595Y-101678070D01*
X139046031Y-101723721D01*
X139080045Y-101749650D01*
X139089455Y-101753883D01*
X139111357Y-101743912D01*
X139156200Y-101717020D01*
X139216679Y-101677736D01*
X139263211Y-101646117D01*
X139347525Y-101588098D01*
X139447374Y-101519784D01*
X139547527Y-101451579D01*
X139601373Y-101415075D01*
X139783629Y-101291800D01*
X139936619Y-101374520D01*
X140006318Y-101410759D01*
X140065586Y-101438926D01*
X140105689Y-101454991D01*
X140115897Y-101457226D01*
X140128171Y-101440722D01*
X140152387Y-101394082D01*
X140186737Y-101321609D01*
X140229412Y-101227606D01*
X140278606Y-101116374D01*
X140332510Y-100992215D01*
X140389316Y-100859432D01*
X140447218Y-100722327D01*
X140504407Y-100585202D01*
X140559076Y-100452358D01*
X140609416Y-100328098D01*
X140653620Y-100216725D01*
X140689881Y-100122539D01*
X140716391Y-100049844D01*
X140731342Y-100002941D01*
X140733746Y-99986833D01*
X140714689Y-99966286D01*
X140672964Y-99932933D01*
X140617294Y-99893702D01*
X140612622Y-99890599D01*
X140468736Y-99775423D01*
X140352717Y-99641053D01*
X140265570Y-99491784D01*
X140208301Y-99331913D01*
X140181914Y-99165737D01*
X140187415Y-98997552D01*
X140225810Y-98831655D01*
X140298105Y-98672342D01*
X140319374Y-98637487D01*
X140430004Y-98496737D01*
X140560698Y-98383714D01*
X140706936Y-98299003D01*
X140864192Y-98243194D01*
X141027943Y-98216874D01*
X141193667Y-98220630D01*
X141356838Y-98255050D01*
X141512935Y-98320723D01*
X141657433Y-98418235D01*
X141702131Y-98457813D01*
X141815888Y-98581703D01*
X141898782Y-98712124D01*
X141955644Y-98858315D01*
X141987313Y-99003088D01*
X141995131Y-99165860D01*
X141969062Y-99329440D01*
X141911755Y-99488298D01*
X141825856Y-99636906D01*
X141714014Y-99769735D01*
X141578877Y-99881256D01*
X141561117Y-99893011D01*
X141504850Y-99931508D01*
X141462077Y-99964863D01*
X141441628Y-99986160D01*
X141441331Y-99986833D01*
X141445721Y-100009871D01*
X141463124Y-100062157D01*
X141491732Y-100139390D01*
X141529735Y-100237268D01*
X141575326Y-100351491D01*
X141626697Y-100477758D01*
X141682038Y-100611767D01*
X141739542Y-100749218D01*
X141797399Y-100885808D01*
X141853802Y-101017237D01*
X141906942Y-101139205D01*
X141955010Y-101247409D01*
X141996199Y-101337549D01*
X142028699Y-101405323D01*
X142050703Y-101446430D01*
X142059564Y-101457226D01*
X142086640Y-101448819D01*
X142137303Y-101426272D01*
X142202817Y-101393613D01*
X142238841Y-101374520D01*
X142391832Y-101291800D01*
X142574088Y-101415075D01*
X142667125Y-101478228D01*
X142768985Y-101547727D01*
X142864438Y-101613165D01*
X142912250Y-101646117D01*
X142979495Y-101691273D01*
X143036436Y-101727057D01*
X143075646Y-101748938D01*
X143088381Y-101753563D01*
X143106917Y-101741085D01*
X143147941Y-101706252D01*
X143207475Y-101652678D01*
X143281542Y-101583983D01*
X143366165Y-101503781D01*
X143419685Y-101452286D01*
X143513319Y-101360286D01*
X143594241Y-101277999D01*
X143659177Y-101208945D01*
X143704858Y-101156644D01*
X143728011Y-101124616D01*
X143730232Y-101118116D01*
X143719924Y-101093394D01*
X143691439Y-101043405D01*
X143647937Y-100973212D01*
X143592577Y-100887875D01*
X143528520Y-100792456D01*
X143510303Y-100765854D01*
X143443927Y-100669167D01*
X143384378Y-100582117D01*
X143334984Y-100509595D01*
X143299075Y-100456493D01*
X143279981Y-100427703D01*
X143278136Y-100424726D01*
X143280895Y-100401782D01*
X143295538Y-100351336D01*
X143319513Y-100280041D01*
X143350266Y-100194547D01*
X143385244Y-100101507D01*
X143421893Y-100007574D01*
X143457661Y-99919399D01*
X143489994Y-99843634D01*
X143516338Y-99786931D01*
X143534142Y-99755943D01*
X143535407Y-99754457D01*
X143546294Y-99745601D01*
X143564682Y-99736843D01*
X143594606Y-99727277D01*
X143640103Y-99715996D01*
X143705209Y-99702093D01*
X143793961Y-99684663D01*
X143910393Y-99662798D01*
X144058542Y-99635591D01*
X144090618Y-99629741D01*
X144185686Y-99611374D01*
X144268565Y-99593405D01*
X144331930Y-99577569D01*
X144368458Y-99565600D01*
X144373356Y-99562810D01*
X144381427Y-99538072D01*
X144387987Y-99482790D01*
X144393033Y-99403389D01*
X144396559Y-99306296D01*
X144398561Y-99197938D01*
X144399036Y-99084740D01*
X144397977Y-98973128D01*
X144395382Y-98869529D01*
X144391246Y-98780368D01*
X144385563Y-98712072D01*
X144378331Y-98671066D01*
X144373971Y-98662674D01*
X144349698Y-98654208D01*
X144294426Y-98640435D01*
X144213662Y-98622550D01*
X144112912Y-98601748D01*
X143997683Y-98579223D01*
X143934902Y-98567418D01*
X143815787Y-98545151D01*
X143709565Y-98524979D01*
X143621427Y-98507915D01*
X143556566Y-98494969D01*
X143520174Y-98487155D01*
X143514184Y-98485422D01*
X143504061Y-98465890D01*
X143482662Y-98418843D01*
X143452839Y-98351003D01*
X143417445Y-98269091D01*
X143379332Y-98179828D01*
X143341353Y-98089935D01*
X143306360Y-98006135D01*
X143277206Y-97935147D01*
X143256743Y-97883694D01*
X143247823Y-97858497D01*
X143247657Y-97857396D01*
X143257769Y-97837519D01*
X143286117Y-97791777D01*
X143329723Y-97724717D01*
X143385606Y-97640884D01*
X143450787Y-97544826D01*
X143488679Y-97489650D01*
X143557725Y-97388481D01*
X143619050Y-97296630D01*
X143669663Y-97218744D01*
X143706571Y-97159469D01*
X143726782Y-97123451D01*
X143729701Y-97115377D01*
X143717153Y-97096584D01*
X143682463Y-97056457D01*
X143630063Y-96999493D01*
X143564384Y-96930185D01*
X143489856Y-96853031D01*
X143410913Y-96772525D01*
X143331983Y-96693163D01*
X143257500Y-96619440D01*
X143191894Y-96555852D01*
X143139596Y-96506894D01*
X143105039Y-96477061D01*
X143093478Y-96469942D01*
X143074654Y-96479953D01*
X143029631Y-96508078D01*
X142962787Y-96551454D01*
X142878499Y-96607218D01*
X142781144Y-96672506D01*
X142707707Y-96722246D01*
X142336667Y-96974551D01*
X141718095Y-96719555D01*
X141634275Y-96274931D01*
X141550454Y-95830307D01*
X140625006Y-95830307D01*
X140541186Y-96274931D01*
X140541186Y-96274931D01*
G37*
X140541186Y-96274931D02*
X140457365Y-96719555D01*
X140148080Y-96847053D01*
X139838794Y-96974551D01*
X139467754Y-96722246D01*
X139363843Y-96651996D01*
X139269913Y-96589272D01*
X139190348Y-96536938D01*
X139129530Y-96497857D01*
X139091843Y-96474893D01*
X139081579Y-96469942D01*
X139063090Y-96482676D01*
X139023580Y-96517882D01*
X138967478Y-96571062D01*
X138899213Y-96637718D01*
X138823214Y-96713354D01*
X138743908Y-96793472D01*
X138665725Y-96873574D01*
X138593093Y-96949164D01*
X138530441Y-97015745D01*
X138482197Y-97068818D01*
X138452790Y-97103887D01*
X138445759Y-97115623D01*
X138455877Y-97137260D01*
X138484241Y-97184662D01*
X138527871Y-97253193D01*
X138583782Y-97338215D01*
X138648994Y-97435093D01*
X138686781Y-97490350D01*
X138755657Y-97591248D01*
X138816860Y-97682299D01*
X138867422Y-97758970D01*
X138904372Y-97816728D01*
X138924742Y-97851043D01*
X138927803Y-97858254D01*
X138920864Y-97878748D01*
X138901949Y-97926513D01*
X138873913Y-97994832D01*
X138839609Y-98076989D01*
X138801891Y-98166270D01*
X138763613Y-98255958D01*
X138727630Y-98339338D01*
X138696794Y-98409694D01*
X138673961Y-98460310D01*
X138661983Y-98484471D01*
X138661276Y-98485422D01*
X138642469Y-98490036D01*
X138592382Y-98500328D01*
X138516207Y-98515287D01*
X138419135Y-98533901D01*
X138306357Y-98555159D01*
X138240558Y-98567418D01*
X138120050Y-98590362D01*
X138011203Y-98612195D01*
X137919524Y-98631722D01*
X137850519Y-98647748D01*
X137809696Y-98659079D01*
X137801489Y-98662674D01*
X137793452Y-98687006D01*
X137786967Y-98741959D01*
X137782030Y-98821108D01*
X137778636Y-98918026D01*
X137776782Y-99026287D01*
X137776462Y-99139465D01*
X137777673Y-99251135D01*
X137780410Y-99354868D01*
X137784669Y-99444241D01*
X137790445Y-99512826D01*
X137797733Y-99554197D01*
X137802105Y-99562810D01*
X137828236Y-99573133D01*
X137883607Y-99587892D01*
X137960893Y-99605352D01*
X138052770Y-99623780D01*
X138084842Y-99629741D01*
X138239476Y-99658066D01*
X138361625Y-99680876D01*
X138455327Y-99699080D01*
X138524616Y-99713583D01*
X138573529Y-99725292D01*
X138606103Y-99735115D01*
X138626372Y-99743956D01*
X138638374Y-99752724D01*
X138640053Y-99754457D01*
X138656816Y-99782371D01*
X138682386Y-99836695D01*
X138714212Y-99910777D01*
X138749740Y-99997965D01*
X138786417Y-100091608D01*
X138821689Y-100185052D01*
X138853004Y-100271647D01*
X138877807Y-100344740D01*
X138893546Y-100397678D01*
X138897668Y-100423811D01*
X138897324Y-100424726D01*
X138883359Y-100446086D01*
X138851678Y-100493084D01*
X138805609Y-100560827D01*
X138748482Y-100644423D01*
X138683627Y-100738982D01*
X138665157Y-100765854D01*
X138599301Y-100863275D01*
X138541350Y-100952163D01*
X138494462Y-101027412D01*
X138461793Y-101083920D01*
X138446500Y-101116581D01*
X138445759Y-101120593D01*
X138458608Y-101141684D01*
X138494112Y-101183464D01*
X138547707Y-101241445D01*
X138614829Y-101311135D01*
X138690913Y-101388045D01*
X138771396Y-101467683D01*
X138851713Y-101545561D01*
X138927301Y-101617186D01*
X138993595Y-101678070D01*
X139046031Y-101723721D01*
X139080045Y-101749650D01*
X139089455Y-101753883D01*
X139111357Y-101743912D01*
X139156200Y-101717020D01*
X139216679Y-101677736D01*
X139263211Y-101646117D01*
X139347525Y-101588098D01*
X139447374Y-101519784D01*
X139547527Y-101451579D01*
X139601373Y-101415075D01*
X139783629Y-101291800D01*
X139936619Y-101374520D01*
X140006318Y-101410759D01*
X140065586Y-101438926D01*
X140105689Y-101454991D01*
X140115897Y-101457226D01*
X140128171Y-101440722D01*
X140152387Y-101394082D01*
X140186737Y-101321609D01*
X140229412Y-101227606D01*
X140278606Y-101116374D01*
X140332510Y-100992215D01*
X140389316Y-100859432D01*
X140447218Y-100722327D01*
X140504407Y-100585202D01*
X140559076Y-100452358D01*
X140609416Y-100328098D01*
X140653620Y-100216725D01*
X140689881Y-100122539D01*
X140716391Y-100049844D01*
X140731342Y-100002941D01*
X140733746Y-99986833D01*
X140714689Y-99966286D01*
X140672964Y-99932933D01*
X140617294Y-99893702D01*
X140612622Y-99890599D01*
X140468736Y-99775423D01*
X140352717Y-99641053D01*
X140265570Y-99491784D01*
X140208301Y-99331913D01*
X140181914Y-99165737D01*
X140187415Y-98997552D01*
X140225810Y-98831655D01*
X140298105Y-98672342D01*
X140319374Y-98637487D01*
X140430004Y-98496737D01*
X140560698Y-98383714D01*
X140706936Y-98299003D01*
X140864192Y-98243194D01*
X141027943Y-98216874D01*
X141193667Y-98220630D01*
X141356838Y-98255050D01*
X141512935Y-98320723D01*
X141657433Y-98418235D01*
X141702131Y-98457813D01*
X141815888Y-98581703D01*
X141898782Y-98712124D01*
X141955644Y-98858315D01*
X141987313Y-99003088D01*
X141995131Y-99165860D01*
X141969062Y-99329440D01*
X141911755Y-99488298D01*
X141825856Y-99636906D01*
X141714014Y-99769735D01*
X141578877Y-99881256D01*
X141561117Y-99893011D01*
X141504850Y-99931508D01*
X141462077Y-99964863D01*
X141441628Y-99986160D01*
X141441331Y-99986833D01*
X141445721Y-100009871D01*
X141463124Y-100062157D01*
X141491732Y-100139390D01*
X141529735Y-100237268D01*
X141575326Y-100351491D01*
X141626697Y-100477758D01*
X141682038Y-100611767D01*
X141739542Y-100749218D01*
X141797399Y-100885808D01*
X141853802Y-101017237D01*
X141906942Y-101139205D01*
X141955010Y-101247409D01*
X141996199Y-101337549D01*
X142028699Y-101405323D01*
X142050703Y-101446430D01*
X142059564Y-101457226D01*
X142086640Y-101448819D01*
X142137303Y-101426272D01*
X142202817Y-101393613D01*
X142238841Y-101374520D01*
X142391832Y-101291800D01*
X142574088Y-101415075D01*
X142667125Y-101478228D01*
X142768985Y-101547727D01*
X142864438Y-101613165D01*
X142912250Y-101646117D01*
X142979495Y-101691273D01*
X143036436Y-101727057D01*
X143075646Y-101748938D01*
X143088381Y-101753563D01*
X143106917Y-101741085D01*
X143147941Y-101706252D01*
X143207475Y-101652678D01*
X143281542Y-101583983D01*
X143366165Y-101503781D01*
X143419685Y-101452286D01*
X143513319Y-101360286D01*
X143594241Y-101277999D01*
X143659177Y-101208945D01*
X143704858Y-101156644D01*
X143728011Y-101124616D01*
X143730232Y-101118116D01*
X143719924Y-101093394D01*
X143691439Y-101043405D01*
X143647937Y-100973212D01*
X143592577Y-100887875D01*
X143528520Y-100792456D01*
X143510303Y-100765854D01*
X143443927Y-100669167D01*
X143384378Y-100582117D01*
X143334984Y-100509595D01*
X143299075Y-100456493D01*
X143279981Y-100427703D01*
X143278136Y-100424726D01*
X143280895Y-100401782D01*
X143295538Y-100351336D01*
X143319513Y-100280041D01*
X143350266Y-100194547D01*
X143385244Y-100101507D01*
X143421893Y-100007574D01*
X143457661Y-99919399D01*
X143489994Y-99843634D01*
X143516338Y-99786931D01*
X143534142Y-99755943D01*
X143535407Y-99754457D01*
X143546294Y-99745601D01*
X143564682Y-99736843D01*
X143594606Y-99727277D01*
X143640103Y-99715996D01*
X143705209Y-99702093D01*
X143793961Y-99684663D01*
X143910393Y-99662798D01*
X144058542Y-99635591D01*
X144090618Y-99629741D01*
X144185686Y-99611374D01*
X144268565Y-99593405D01*
X144331930Y-99577569D01*
X144368458Y-99565600D01*
X144373356Y-99562810D01*
X144381427Y-99538072D01*
X144387987Y-99482790D01*
X144393033Y-99403389D01*
X144396559Y-99306296D01*
X144398561Y-99197938D01*
X144399036Y-99084740D01*
X144397977Y-98973128D01*
X144395382Y-98869529D01*
X144391246Y-98780368D01*
X144385563Y-98712072D01*
X144378331Y-98671066D01*
X144373971Y-98662674D01*
X144349698Y-98654208D01*
X144294426Y-98640435D01*
X144213662Y-98622550D01*
X144112912Y-98601748D01*
X143997683Y-98579223D01*
X143934902Y-98567418D01*
X143815787Y-98545151D01*
X143709565Y-98524979D01*
X143621427Y-98507915D01*
X143556566Y-98494969D01*
X143520174Y-98487155D01*
X143514184Y-98485422D01*
X143504061Y-98465890D01*
X143482662Y-98418843D01*
X143452839Y-98351003D01*
X143417445Y-98269091D01*
X143379332Y-98179828D01*
X143341353Y-98089935D01*
X143306360Y-98006135D01*
X143277206Y-97935147D01*
X143256743Y-97883694D01*
X143247823Y-97858497D01*
X143247657Y-97857396D01*
X143257769Y-97837519D01*
X143286117Y-97791777D01*
X143329723Y-97724717D01*
X143385606Y-97640884D01*
X143450787Y-97544826D01*
X143488679Y-97489650D01*
X143557725Y-97388481D01*
X143619050Y-97296630D01*
X143669663Y-97218744D01*
X143706571Y-97159469D01*
X143726782Y-97123451D01*
X143729701Y-97115377D01*
X143717153Y-97096584D01*
X143682463Y-97056457D01*
X143630063Y-96999493D01*
X143564384Y-96930185D01*
X143489856Y-96853031D01*
X143410913Y-96772525D01*
X143331983Y-96693163D01*
X143257500Y-96619440D01*
X143191894Y-96555852D01*
X143139596Y-96506894D01*
X143105039Y-96477061D01*
X143093478Y-96469942D01*
X143074654Y-96479953D01*
X143029631Y-96508078D01*
X142962787Y-96551454D01*
X142878499Y-96607218D01*
X142781144Y-96672506D01*
X142707707Y-96722246D01*
X142336667Y-96974551D01*
X141718095Y-96719555D01*
X141634275Y-96274931D01*
X141550454Y-95830307D01*
X140625006Y-95830307D01*
X140541186Y-96274931D01*
G04 #@! TD*
M02*
