G04 #@! TF.GenerationSoftware,KiCad,Pcbnew,(5.0.2)-1*
G04 #@! TF.CreationDate,2018-12-30T17:04:54-05:00*
G04 #@! TF.ProjectId,8P8C+LED_Horizontal,38503843-2b4c-4454-945f-486f72697a6f,rev?*
G04 #@! TF.SameCoordinates,Original*
G04 #@! TF.FileFunction,Copper,L2,Bot*
G04 #@! TF.FilePolarity,Positive*
%FSLAX46Y46*%
G04 Gerber Fmt 4.6, Leading zero omitted, Abs format (unit mm)*
G04 Created by KiCad (PCBNEW (5.0.2)-1) date 12/30/2018 5:04:54 PM*
%MOMM*%
%LPD*%
G01*
G04 APERTURE LIST*
G04 #@! TA.AperFunction,ComponentPad*
%ADD10O,1.700000X1.700000*%
G04 #@! TD*
G04 #@! TA.AperFunction,ComponentPad*
%ADD11R,1.700000X1.700000*%
G04 #@! TD*
G04 #@! TA.AperFunction,ComponentPad*
%ADD12C,1.500000*%
G04 #@! TD*
G04 #@! TA.AperFunction,ComponentPad*
%ADD13C,2.000000*%
G04 #@! TD*
G04 #@! TA.AperFunction,ComponentPad*
%ADD14R,1.500000X1.500000*%
G04 #@! TD*
G04 #@! TA.AperFunction,ViaPad*
%ADD15C,0.800000*%
G04 #@! TD*
G04 #@! TA.AperFunction,Conductor*
%ADD16C,0.525000*%
G04 #@! TD*
G04 #@! TA.AperFunction,Conductor*
%ADD17C,0.254000*%
G04 #@! TD*
G04 APERTURE END LIST*
D10*
G04 #@! TO.P,J3,6*
G04 #@! TO.N,/Y+*
X134620000Y-93980000D03*
G04 #@! TO.P,J3,5*
G04 #@! TO.N,/Y-*
X137160000Y-93980000D03*
G04 #@! TO.P,J3,4*
G04 #@! TO.N,/G+*
X139700000Y-93980000D03*
G04 #@! TO.P,J3,3*
G04 #@! TO.N,/G-*
X142240000Y-93980000D03*
G04 #@! TO.P,J3,2*
G04 #@! TO.N,/Pin8*
X144780000Y-93980000D03*
D11*
G04 #@! TO.P,J3,1*
G04 #@! TO.N,/Pin7*
X147320000Y-93980000D03*
G04 #@! TD*
D10*
G04 #@! TO.P,J2,6*
G04 #@! TO.N,/Pin6*
X147320000Y-116840000D03*
G04 #@! TO.P,J2,5*
G04 #@! TO.N,/Pin5*
X144780000Y-116840000D03*
G04 #@! TO.P,J2,4*
G04 #@! TO.N,/Pin4*
X142240000Y-116840000D03*
G04 #@! TO.P,J2,3*
G04 #@! TO.N,/Pin3*
X139700000Y-116840000D03*
G04 #@! TO.P,J2,2*
G04 #@! TO.N,/Pin2*
X137160000Y-116840000D03*
D11*
G04 #@! TO.P,J2,1*
G04 #@! TO.N,/Pin1*
X134620000Y-116840000D03*
G04 #@! TD*
D12*
G04 #@! TO.P,J1,12*
G04 #@! TO.N,/Y+*
X134233000Y-98175000D03*
G04 #@! TO.P,J1,11*
G04 #@! TO.N,/Y-*
X136523000Y-98175000D03*
G04 #@! TO.P,J1,10*
G04 #@! TO.N,/G+*
X145663000Y-98175000D03*
G04 #@! TO.P,J1,9*
G04 #@! TO.N,/G-*
X147953000Y-98175000D03*
D13*
G04 #@! TO.P,J1,SH*
G04 #@! TO.N,GND*
X149223000Y-103885000D03*
X132963000Y-103885000D03*
D12*
G04 #@! TO.P,J1,8*
G04 #@! TO.N,/Pin8*
X137513000Y-102995000D03*
G04 #@! TO.P,J1,6*
G04 #@! TO.N,/Pin6*
X139553000Y-102995000D03*
G04 #@! TO.P,J1,4*
G04 #@! TO.N,/Pin4*
X141593000Y-102995000D03*
G04 #@! TO.P,J1,2*
G04 #@! TO.N,/Pin2*
X143633000Y-102995000D03*
G04 #@! TO.P,J1,7*
G04 #@! TO.N,/Pin7*
X138533000Y-104775000D03*
G04 #@! TO.P,J1,5*
G04 #@! TO.N,/Pin5*
X140573000Y-104775000D03*
G04 #@! TO.P,J1,3*
G04 #@! TO.N,/Pin3*
X142613000Y-104775000D03*
D14*
G04 #@! TO.P,J1,1*
G04 #@! TO.N,/Pin1*
X144653000Y-104775000D03*
G04 #@! TD*
D15*
G04 #@! TO.N,/Pin2*
X135636000Y-99822000D03*
G04 #@! TO.N,/Pin7*
X140388265Y-97081265D03*
X142621000Y-98044000D03*
G04 #@! TO.N,/Pin3*
X146050000Y-114935000D03*
X143510000Y-114935000D03*
G04 #@! TO.N,/Pin1*
X147574000Y-113284000D03*
X143510000Y-113284000D03*
X139954000Y-113284000D03*
G04 #@! TD*
D16*
G04 #@! TO.N,/Pin2*
X135236001Y-104644499D02*
X137160000Y-106568498D01*
X135236001Y-100221999D02*
X135236001Y-104644499D01*
X135636000Y-99822000D02*
X135236001Y-100221999D01*
X137160000Y-106568498D02*
X137160000Y-116840000D01*
G04 #@! TO.N,/Pin7*
X136250499Y-101219031D02*
X140388265Y-97081265D01*
X136250499Y-103553159D02*
X136250499Y-101219031D01*
X138533000Y-104775000D02*
X137472340Y-104775000D01*
X137472340Y-104775000D02*
X136250499Y-103553159D01*
X143655999Y-97644001D02*
X147320000Y-93980000D01*
X143020999Y-97644001D02*
X143655999Y-97644001D01*
X142621000Y-98044000D02*
X143020999Y-97644001D01*
G04 #@! TO.N,/Pin5*
X140573000Y-106283000D02*
X140573000Y-104775000D01*
X144780000Y-116586000D02*
X144780000Y-110490000D01*
X144780000Y-110490000D02*
X140573000Y-106283000D01*
G04 #@! TO.N,/Pin3*
X146050000Y-110663976D02*
X146050000Y-114935000D01*
X142613000Y-104775000D02*
X142613000Y-107226976D01*
X142613000Y-107226976D02*
X146050000Y-110663976D01*
X141605000Y-114935000D02*
X139700000Y-116840000D01*
X143510000Y-114935000D02*
X141605000Y-114935000D01*
G04 #@! TO.N,/Pin1*
X147574000Y-111091948D02*
X147574000Y-113284000D01*
X144653000Y-104775000D02*
X144653000Y-108170948D01*
X144653000Y-108170948D02*
X147574000Y-111091948D01*
X143510000Y-113284000D02*
X139954000Y-113284000D01*
G04 #@! TO.N,/Pin8*
X137513000Y-101247000D02*
X144780000Y-93980000D01*
X137513000Y-102995000D02*
X137513000Y-101247000D01*
G04 #@! TD*
D17*
G04 #@! TO.N,GND*
G36*
X133105908Y-93980000D02*
X133221161Y-94559418D01*
X133549375Y-95050625D01*
X134040582Y-95378839D01*
X134473744Y-95465000D01*
X134766256Y-95465000D01*
X135199418Y-95378839D01*
X135690625Y-95050625D01*
X135890000Y-94752239D01*
X136089375Y-95050625D01*
X136580582Y-95378839D01*
X137013744Y-95465000D01*
X137306256Y-95465000D01*
X137739418Y-95378839D01*
X138230625Y-95050625D01*
X138430000Y-94752239D01*
X138629375Y-95050625D01*
X139120582Y-95378839D01*
X139553744Y-95465000D01*
X139846256Y-95465000D01*
X140279418Y-95378839D01*
X140770625Y-95050625D01*
X140970000Y-94752239D01*
X141169375Y-95050625D01*
X141660582Y-95378839D01*
X142037025Y-95453718D01*
X141130727Y-96360016D01*
X140974545Y-96203834D01*
X140594139Y-96046265D01*
X140182391Y-96046265D01*
X139801985Y-96203834D01*
X139510834Y-96494985D01*
X139373335Y-96826938D01*
X137908000Y-98292273D01*
X137908000Y-97899506D01*
X137697147Y-97390460D01*
X137307540Y-97000853D01*
X136798494Y-96790000D01*
X136247506Y-96790000D01*
X135738460Y-97000853D01*
X135378000Y-97361313D01*
X135017540Y-97000853D01*
X134508494Y-96790000D01*
X133957506Y-96790000D01*
X133448460Y-97000853D01*
X133058853Y-97390460D01*
X132848000Y-97899506D01*
X132848000Y-98450494D01*
X133058853Y-98959540D01*
X133448460Y-99349147D01*
X133957506Y-99560000D01*
X134508494Y-99560000D01*
X134648221Y-99502123D01*
X134629205Y-99548034D01*
X134588940Y-99574938D01*
X134390575Y-99871813D01*
X134338501Y-100133605D01*
X134338501Y-100133608D01*
X134320919Y-100221999D01*
X134338501Y-100310390D01*
X134338502Y-102994510D01*
X134115532Y-102912073D01*
X133142605Y-103885000D01*
X134115532Y-104857927D01*
X134346394Y-104772571D01*
X134390575Y-104994685D01*
X134430876Y-105055000D01*
X134293458Y-105055000D01*
X133863645Y-105233035D01*
X133935927Y-105037532D01*
X132963000Y-104064605D01*
X131990073Y-105037532D01*
X132088736Y-105304387D01*
X132698461Y-105530908D01*
X133348460Y-105506856D01*
X133359662Y-105502216D01*
X132827065Y-106034813D01*
X132483000Y-106865458D01*
X132483000Y-107764542D01*
X132827065Y-108595187D01*
X133462813Y-109230935D01*
X134293458Y-109575000D01*
X135192542Y-109575000D01*
X136023187Y-109230935D01*
X136262500Y-108991622D01*
X136262501Y-115653696D01*
X136089375Y-115769375D01*
X136077184Y-115787619D01*
X136068157Y-115742235D01*
X135927809Y-115532191D01*
X135717765Y-115391843D01*
X135470000Y-115342560D01*
X133770000Y-115342560D01*
X133522235Y-115391843D01*
X133312191Y-115532191D01*
X133171843Y-115742235D01*
X133122560Y-115990000D01*
X133122560Y-117400000D01*
X132396119Y-117400000D01*
X132146213Y-117355935D01*
X131981081Y-117260596D01*
X131858512Y-117114524D01*
X131782445Y-116905532D01*
X131774000Y-116809004D01*
X131774000Y-104844444D01*
X131810468Y-104857927D01*
X132783395Y-103885000D01*
X131810468Y-102912073D01*
X131774000Y-102925556D01*
X131774000Y-102732468D01*
X131990073Y-102732468D01*
X132963000Y-103705395D01*
X133935927Y-102732468D01*
X133837264Y-102465613D01*
X133227539Y-102239092D01*
X132577540Y-102263144D01*
X132088736Y-102465613D01*
X131990073Y-102732468D01*
X131774000Y-102732468D01*
X131774000Y-94042119D01*
X131818065Y-93792213D01*
X131913405Y-93627080D01*
X132059477Y-93504512D01*
X132268465Y-93428445D01*
X132364996Y-93420000D01*
X133217299Y-93420000D01*
X133105908Y-93980000D01*
X133105908Y-93980000D01*
G37*
X133105908Y-93980000D02*
X133221161Y-94559418D01*
X133549375Y-95050625D01*
X134040582Y-95378839D01*
X134473744Y-95465000D01*
X134766256Y-95465000D01*
X135199418Y-95378839D01*
X135690625Y-95050625D01*
X135890000Y-94752239D01*
X136089375Y-95050625D01*
X136580582Y-95378839D01*
X137013744Y-95465000D01*
X137306256Y-95465000D01*
X137739418Y-95378839D01*
X138230625Y-95050625D01*
X138430000Y-94752239D01*
X138629375Y-95050625D01*
X139120582Y-95378839D01*
X139553744Y-95465000D01*
X139846256Y-95465000D01*
X140279418Y-95378839D01*
X140770625Y-95050625D01*
X140970000Y-94752239D01*
X141169375Y-95050625D01*
X141660582Y-95378839D01*
X142037025Y-95453718D01*
X141130727Y-96360016D01*
X140974545Y-96203834D01*
X140594139Y-96046265D01*
X140182391Y-96046265D01*
X139801985Y-96203834D01*
X139510834Y-96494985D01*
X139373335Y-96826938D01*
X137908000Y-98292273D01*
X137908000Y-97899506D01*
X137697147Y-97390460D01*
X137307540Y-97000853D01*
X136798494Y-96790000D01*
X136247506Y-96790000D01*
X135738460Y-97000853D01*
X135378000Y-97361313D01*
X135017540Y-97000853D01*
X134508494Y-96790000D01*
X133957506Y-96790000D01*
X133448460Y-97000853D01*
X133058853Y-97390460D01*
X132848000Y-97899506D01*
X132848000Y-98450494D01*
X133058853Y-98959540D01*
X133448460Y-99349147D01*
X133957506Y-99560000D01*
X134508494Y-99560000D01*
X134648221Y-99502123D01*
X134629205Y-99548034D01*
X134588940Y-99574938D01*
X134390575Y-99871813D01*
X134338501Y-100133605D01*
X134338501Y-100133608D01*
X134320919Y-100221999D01*
X134338501Y-100310390D01*
X134338502Y-102994510D01*
X134115532Y-102912073D01*
X133142605Y-103885000D01*
X134115532Y-104857927D01*
X134346394Y-104772571D01*
X134390575Y-104994685D01*
X134430876Y-105055000D01*
X134293458Y-105055000D01*
X133863645Y-105233035D01*
X133935927Y-105037532D01*
X132963000Y-104064605D01*
X131990073Y-105037532D01*
X132088736Y-105304387D01*
X132698461Y-105530908D01*
X133348460Y-105506856D01*
X133359662Y-105502216D01*
X132827065Y-106034813D01*
X132483000Y-106865458D01*
X132483000Y-107764542D01*
X132827065Y-108595187D01*
X133462813Y-109230935D01*
X134293458Y-109575000D01*
X135192542Y-109575000D01*
X136023187Y-109230935D01*
X136262500Y-108991622D01*
X136262501Y-115653696D01*
X136089375Y-115769375D01*
X136077184Y-115787619D01*
X136068157Y-115742235D01*
X135927809Y-115532191D01*
X135717765Y-115391843D01*
X135470000Y-115342560D01*
X133770000Y-115342560D01*
X133522235Y-115391843D01*
X133312191Y-115532191D01*
X133171843Y-115742235D01*
X133122560Y-115990000D01*
X133122560Y-117400000D01*
X132396119Y-117400000D01*
X132146213Y-117355935D01*
X131981081Y-117260596D01*
X131858512Y-117114524D01*
X131782445Y-116905532D01*
X131774000Y-116809004D01*
X131774000Y-104844444D01*
X131810468Y-104857927D01*
X132783395Y-103885000D01*
X131810468Y-102912073D01*
X131774000Y-102925556D01*
X131774000Y-102732468D01*
X131990073Y-102732468D01*
X132963000Y-103705395D01*
X133935927Y-102732468D01*
X133837264Y-102465613D01*
X133227539Y-102239092D01*
X132577540Y-102263144D01*
X132088736Y-102465613D01*
X131990073Y-102732468D01*
X131774000Y-102732468D01*
X131774000Y-94042119D01*
X131818065Y-93792213D01*
X131913405Y-93627080D01*
X132059477Y-93504512D01*
X132268465Y-93428445D01*
X132364996Y-93420000D01*
X133217299Y-93420000D01*
X133105908Y-93980000D01*
G36*
X150047787Y-93464065D02*
X150212920Y-93559405D01*
X150335488Y-93705477D01*
X150411555Y-93914465D01*
X150420001Y-94011007D01*
X150420001Y-102928514D01*
X150375532Y-102912073D01*
X149402605Y-103885000D01*
X150375532Y-104857927D01*
X150420001Y-104841486D01*
X150420000Y-116777881D01*
X150375935Y-117027787D01*
X150280596Y-117192919D01*
X150134524Y-117315488D01*
X149925532Y-117391555D01*
X149829004Y-117400000D01*
X148722701Y-117400000D01*
X148834092Y-116840000D01*
X148718839Y-116260582D01*
X148390625Y-115769375D01*
X147899418Y-115441161D01*
X147466256Y-115355000D01*
X147173744Y-115355000D01*
X146980374Y-115393464D01*
X147085000Y-115140874D01*
X147085000Y-114729126D01*
X146947500Y-114397171D01*
X146947500Y-114121211D01*
X146987720Y-114161431D01*
X147368126Y-114319000D01*
X147779874Y-114319000D01*
X148160280Y-114161431D01*
X148451431Y-113870280D01*
X148609000Y-113489874D01*
X148609000Y-113078126D01*
X148471500Y-112746171D01*
X148471500Y-111180339D01*
X148489082Y-111091948D01*
X148471500Y-111003557D01*
X148471500Y-111003553D01*
X148419426Y-110741761D01*
X148308388Y-110575581D01*
X148271133Y-110519824D01*
X148271131Y-110519822D01*
X148221061Y-110444887D01*
X148146126Y-110394817D01*
X147326309Y-109575000D01*
X147892542Y-109575000D01*
X148723187Y-109230935D01*
X149358935Y-108595187D01*
X149703000Y-107764542D01*
X149703000Y-106865458D01*
X149358935Y-106034813D01*
X148793889Y-105469767D01*
X148958461Y-105530908D01*
X149608460Y-105506856D01*
X150097264Y-105304387D01*
X150195927Y-105037532D01*
X149223000Y-104064605D01*
X148250073Y-105037532D01*
X148322355Y-105233035D01*
X147892542Y-105055000D01*
X146993458Y-105055000D01*
X146162813Y-105399065D01*
X146050440Y-105511438D01*
X146050440Y-104025000D01*
X146001157Y-103777235D01*
X145896404Y-103620461D01*
X147577092Y-103620461D01*
X147601144Y-104270460D01*
X147803613Y-104759264D01*
X148070468Y-104857927D01*
X149043395Y-103885000D01*
X148070468Y-102912073D01*
X147803613Y-103010736D01*
X147577092Y-103620461D01*
X145896404Y-103620461D01*
X145860809Y-103567191D01*
X145650765Y-103426843D01*
X145403000Y-103377560D01*
X144973652Y-103377560D01*
X145018000Y-103270494D01*
X145018000Y-102732468D01*
X148250073Y-102732468D01*
X149223000Y-103705395D01*
X150195927Y-102732468D01*
X150097264Y-102465613D01*
X149487539Y-102239092D01*
X148837540Y-102263144D01*
X148348736Y-102465613D01*
X148250073Y-102732468D01*
X145018000Y-102732468D01*
X145018000Y-102719506D01*
X144807147Y-102210460D01*
X144417540Y-101820853D01*
X143908494Y-101610000D01*
X143357506Y-101610000D01*
X142848460Y-101820853D01*
X142613000Y-102056313D01*
X142377540Y-101820853D01*
X141868494Y-101610000D01*
X141317506Y-101610000D01*
X140808460Y-101820853D01*
X140573000Y-102056313D01*
X140337540Y-101820853D01*
X139828494Y-101610000D01*
X139277506Y-101610000D01*
X138768460Y-101820853D01*
X138533000Y-102056313D01*
X138410500Y-101933813D01*
X138410500Y-101618756D01*
X141642640Y-98386616D01*
X141743569Y-98630280D01*
X142034720Y-98921431D01*
X142415126Y-99079000D01*
X142826874Y-99079000D01*
X143207280Y-98921431D01*
X143498431Y-98630280D01*
X143535204Y-98541501D01*
X143567608Y-98541501D01*
X143655999Y-98559083D01*
X143744390Y-98541501D01*
X143744394Y-98541501D01*
X144006186Y-98489427D01*
X144278000Y-98307807D01*
X144278000Y-98450494D01*
X144488853Y-98959540D01*
X144878460Y-99349147D01*
X145387506Y-99560000D01*
X145938494Y-99560000D01*
X146447540Y-99349147D01*
X146808000Y-98988687D01*
X147168460Y-99349147D01*
X147677506Y-99560000D01*
X148228494Y-99560000D01*
X148737540Y-99349147D01*
X149127147Y-98959540D01*
X149338000Y-98450494D01*
X149338000Y-97899506D01*
X149127147Y-97390460D01*
X148737540Y-97000853D01*
X148228494Y-96790000D01*
X147677506Y-96790000D01*
X147168460Y-97000853D01*
X146808000Y-97361313D01*
X146447540Y-97000853D01*
X145938494Y-96790000D01*
X145779256Y-96790000D01*
X147091817Y-95477440D01*
X148170000Y-95477440D01*
X148417765Y-95428157D01*
X148627809Y-95287809D01*
X148768157Y-95077765D01*
X148817440Y-94830000D01*
X148817440Y-93420000D01*
X149797881Y-93420000D01*
X150047787Y-93464065D01*
X150047787Y-93464065D01*
G37*
X150047787Y-93464065D02*
X150212920Y-93559405D01*
X150335488Y-93705477D01*
X150411555Y-93914465D01*
X150420001Y-94011007D01*
X150420001Y-102928514D01*
X150375532Y-102912073D01*
X149402605Y-103885000D01*
X150375532Y-104857927D01*
X150420001Y-104841486D01*
X150420000Y-116777881D01*
X150375935Y-117027787D01*
X150280596Y-117192919D01*
X150134524Y-117315488D01*
X149925532Y-117391555D01*
X149829004Y-117400000D01*
X148722701Y-117400000D01*
X148834092Y-116840000D01*
X148718839Y-116260582D01*
X148390625Y-115769375D01*
X147899418Y-115441161D01*
X147466256Y-115355000D01*
X147173744Y-115355000D01*
X146980374Y-115393464D01*
X147085000Y-115140874D01*
X147085000Y-114729126D01*
X146947500Y-114397171D01*
X146947500Y-114121211D01*
X146987720Y-114161431D01*
X147368126Y-114319000D01*
X147779874Y-114319000D01*
X148160280Y-114161431D01*
X148451431Y-113870280D01*
X148609000Y-113489874D01*
X148609000Y-113078126D01*
X148471500Y-112746171D01*
X148471500Y-111180339D01*
X148489082Y-111091948D01*
X148471500Y-111003557D01*
X148471500Y-111003553D01*
X148419426Y-110741761D01*
X148308388Y-110575581D01*
X148271133Y-110519824D01*
X148271131Y-110519822D01*
X148221061Y-110444887D01*
X148146126Y-110394817D01*
X147326309Y-109575000D01*
X147892542Y-109575000D01*
X148723187Y-109230935D01*
X149358935Y-108595187D01*
X149703000Y-107764542D01*
X149703000Y-106865458D01*
X149358935Y-106034813D01*
X148793889Y-105469767D01*
X148958461Y-105530908D01*
X149608460Y-105506856D01*
X150097264Y-105304387D01*
X150195927Y-105037532D01*
X149223000Y-104064605D01*
X148250073Y-105037532D01*
X148322355Y-105233035D01*
X147892542Y-105055000D01*
X146993458Y-105055000D01*
X146162813Y-105399065D01*
X146050440Y-105511438D01*
X146050440Y-104025000D01*
X146001157Y-103777235D01*
X145896404Y-103620461D01*
X147577092Y-103620461D01*
X147601144Y-104270460D01*
X147803613Y-104759264D01*
X148070468Y-104857927D01*
X149043395Y-103885000D01*
X148070468Y-102912073D01*
X147803613Y-103010736D01*
X147577092Y-103620461D01*
X145896404Y-103620461D01*
X145860809Y-103567191D01*
X145650765Y-103426843D01*
X145403000Y-103377560D01*
X144973652Y-103377560D01*
X145018000Y-103270494D01*
X145018000Y-102732468D01*
X148250073Y-102732468D01*
X149223000Y-103705395D01*
X150195927Y-102732468D01*
X150097264Y-102465613D01*
X149487539Y-102239092D01*
X148837540Y-102263144D01*
X148348736Y-102465613D01*
X148250073Y-102732468D01*
X145018000Y-102732468D01*
X145018000Y-102719506D01*
X144807147Y-102210460D01*
X144417540Y-101820853D01*
X143908494Y-101610000D01*
X143357506Y-101610000D01*
X142848460Y-101820853D01*
X142613000Y-102056313D01*
X142377540Y-101820853D01*
X141868494Y-101610000D01*
X141317506Y-101610000D01*
X140808460Y-101820853D01*
X140573000Y-102056313D01*
X140337540Y-101820853D01*
X139828494Y-101610000D01*
X139277506Y-101610000D01*
X138768460Y-101820853D01*
X138533000Y-102056313D01*
X138410500Y-101933813D01*
X138410500Y-101618756D01*
X141642640Y-98386616D01*
X141743569Y-98630280D01*
X142034720Y-98921431D01*
X142415126Y-99079000D01*
X142826874Y-99079000D01*
X143207280Y-98921431D01*
X143498431Y-98630280D01*
X143535204Y-98541501D01*
X143567608Y-98541501D01*
X143655999Y-98559083D01*
X143744390Y-98541501D01*
X143744394Y-98541501D01*
X144006186Y-98489427D01*
X144278000Y-98307807D01*
X144278000Y-98450494D01*
X144488853Y-98959540D01*
X144878460Y-99349147D01*
X145387506Y-99560000D01*
X145938494Y-99560000D01*
X146447540Y-99349147D01*
X146808000Y-98988687D01*
X147168460Y-99349147D01*
X147677506Y-99560000D01*
X148228494Y-99560000D01*
X148737540Y-99349147D01*
X149127147Y-98959540D01*
X149338000Y-98450494D01*
X149338000Y-97899506D01*
X149127147Y-97390460D01*
X148737540Y-97000853D01*
X148228494Y-96790000D01*
X147677506Y-96790000D01*
X147168460Y-97000853D01*
X146808000Y-97361313D01*
X146447540Y-97000853D01*
X145938494Y-96790000D01*
X145779256Y-96790000D01*
X147091817Y-95477440D01*
X148170000Y-95477440D01*
X148417765Y-95428157D01*
X148627809Y-95287809D01*
X148768157Y-95077765D01*
X148817440Y-94830000D01*
X148817440Y-93420000D01*
X149797881Y-93420000D01*
X150047787Y-93464065D01*
G04 #@! TD*
M02*
