M48
;DRILL file {KiCad (5.0.2)-1} date 12/30/2018 5:04:52 PM
;FORMAT={-:-/ absolute / inch / decimal}
FMAT,2
INCH,TZ
T1C0.0157
T2C0.0350
T3C0.0394
T4C0.0618
%
G90
G05
T1
X5.34Y-3.93
X5.51Y-4.46
X5.5271Y-3.8221
X5.615Y-3.86
X5.65Y-4.46
X5.65Y-4.525
X5.75Y-4.525
X5.81Y-4.46
T2
X5.2848Y-3.8652
X5.3749Y-3.8652
X5.4139Y-4.0549
X5.4541Y-4.125
X5.4942Y-4.0549
X5.5344Y-4.125
X5.5745Y-4.0549
X5.6147Y-4.125
X5.6548Y-4.0549
X5.695Y-4.125
X5.7348Y-3.8652
X5.8249Y-3.8652
T3
X5.3Y-3.7
X5.4Y-3.7
X5.5Y-3.7
X5.6Y-3.7
X5.7Y-3.7
X5.8Y-3.7
X5.3Y-4.6
X5.4Y-4.6
X5.5Y-4.6
X5.6Y-4.6
X5.7Y-4.6
X5.8Y-4.6
T4
X5.2348Y-4.09
X5.8749Y-4.09
T0
M30
