G04 #@! TF.GenerationSoftware,KiCad,Pcbnew,(5.0.2)-1*
G04 #@! TF.CreationDate,2018-12-29T12:11:14-05:00*
G04 #@! TF.ProjectId,8P8C+LED_Horizontal,38503843-2b4c-4454-945f-486f72697a6f,rev?*
G04 #@! TF.SameCoordinates,Original*
G04 #@! TF.FileFunction,Copper,L1,Top*
G04 #@! TF.FilePolarity,Positive*
%FSLAX46Y46*%
G04 Gerber Fmt 4.6, Leading zero omitted, Abs format (unit mm)*
G04 Created by KiCad (PCBNEW (5.0.2)-1) date 12/29/2018 12:11:14 PM*
%MOMM*%
%LPD*%
G01*
G04 APERTURE LIST*
G04 #@! TA.AperFunction,ComponentPad*
%ADD10O,1.700000X1.700000*%
G04 #@! TD*
G04 #@! TA.AperFunction,ComponentPad*
%ADD11R,1.700000X1.700000*%
G04 #@! TD*
G04 #@! TA.AperFunction,ComponentPad*
%ADD12C,1.500000*%
G04 #@! TD*
G04 #@! TA.AperFunction,ComponentPad*
%ADD13C,2.000000*%
G04 #@! TD*
G04 #@! TA.AperFunction,ComponentPad*
%ADD14R,1.500000X1.500000*%
G04 #@! TD*
G04 #@! TA.AperFunction,ViaPad*
%ADD15C,0.800000*%
G04 #@! TD*
G04 #@! TA.AperFunction,Conductor*
%ADD16C,0.525000*%
G04 #@! TD*
G04 #@! TA.AperFunction,Conductor*
%ADD17C,0.254000*%
G04 #@! TD*
G04 APERTURE END LIST*
D10*
G04 #@! TO.P,J3,6*
G04 #@! TO.N,/Y+*
X134620000Y-93980000D03*
G04 #@! TO.P,J3,5*
G04 #@! TO.N,/Y-*
X137160000Y-93980000D03*
G04 #@! TO.P,J3,4*
G04 #@! TO.N,/G+*
X139700000Y-93980000D03*
G04 #@! TO.P,J3,3*
G04 #@! TO.N,/G-*
X142240000Y-93980000D03*
G04 #@! TO.P,J3,2*
G04 #@! TO.N,/Pin8*
X144780000Y-93980000D03*
D11*
G04 #@! TO.P,J3,1*
G04 #@! TO.N,/Pin7*
X147320000Y-93980000D03*
G04 #@! TD*
D10*
G04 #@! TO.P,J2,6*
G04 #@! TO.N,/Pin6*
X147320000Y-116586000D03*
G04 #@! TO.P,J2,5*
G04 #@! TO.N,/Pin5*
X144780000Y-116586000D03*
G04 #@! TO.P,J2,4*
G04 #@! TO.N,/Pin4*
X142240000Y-116586000D03*
G04 #@! TO.P,J2,3*
G04 #@! TO.N,/Pin3*
X139700000Y-116586000D03*
G04 #@! TO.P,J2,2*
G04 #@! TO.N,/Pin2*
X137160000Y-116586000D03*
D11*
G04 #@! TO.P,J2,1*
G04 #@! TO.N,/Pin1*
X134620000Y-116586000D03*
G04 #@! TD*
D12*
G04 #@! TO.P,J1,12*
G04 #@! TO.N,/Y+*
X134233000Y-98175000D03*
G04 #@! TO.P,J1,11*
G04 #@! TO.N,/Y-*
X136523000Y-98175000D03*
G04 #@! TO.P,J1,10*
G04 #@! TO.N,/G+*
X145663000Y-98175000D03*
G04 #@! TO.P,J1,9*
G04 #@! TO.N,/G-*
X147953000Y-98175000D03*
D13*
G04 #@! TO.P,J1,SH*
G04 #@! TO.N,GND*
X149223000Y-103885000D03*
X132963000Y-103885000D03*
D12*
G04 #@! TO.P,J1,8*
G04 #@! TO.N,/Pin8*
X137513000Y-102995000D03*
G04 #@! TO.P,J1,6*
G04 #@! TO.N,/Pin6*
X139553000Y-102995000D03*
G04 #@! TO.P,J1,4*
G04 #@! TO.N,/Pin4*
X141593000Y-102995000D03*
G04 #@! TO.P,J1,2*
G04 #@! TO.N,/Pin2*
X143633000Y-102995000D03*
G04 #@! TO.P,J1,7*
G04 #@! TO.N,/Pin7*
X138533000Y-104775000D03*
G04 #@! TO.P,J1,5*
G04 #@! TO.N,/Pin5*
X140573000Y-104775000D03*
G04 #@! TO.P,J1,3*
G04 #@! TO.N,/Pin3*
X142613000Y-104775000D03*
D14*
G04 #@! TO.P,J1,1*
G04 #@! TO.N,/Pin1*
X144653000Y-104775000D03*
G04 #@! TD*
D15*
G04 #@! TO.N,/Pin2*
X135636000Y-99822000D03*
G04 #@! TO.N,/Pin7*
X140388265Y-97081265D03*
X142621000Y-98044000D03*
G04 #@! TO.N,/Pin3*
X146050000Y-114935000D03*
X143510000Y-114935000D03*
G04 #@! TO.N,/Pin1*
X147574000Y-113284000D03*
X143510000Y-113284000D03*
X139954000Y-113284000D03*
G04 #@! TD*
D16*
G04 #@! TO.N,/Pin6*
X148169999Y-115736001D02*
X147320000Y-116586000D01*
X147333010Y-111138010D02*
X148844000Y-112649000D01*
X143015010Y-111138010D02*
X147333010Y-111138010D01*
X143015010Y-111125512D02*
X143015010Y-111138010D01*
X148844000Y-112649000D02*
X148844000Y-115062000D01*
X139553000Y-101934340D02*
X139351159Y-101732499D01*
X139553000Y-102995000D02*
X139553000Y-101934340D01*
X139351159Y-101732499D02*
X136906999Y-101732499D01*
X136906999Y-101732499D02*
X136144000Y-102495498D01*
X148844000Y-115062000D02*
X148169999Y-115736001D01*
X136144000Y-102495498D02*
X136144000Y-104254502D01*
X136144000Y-104254502D02*
X143015010Y-111125512D01*
G04 #@! TO.N,/Pin4*
X135368990Y-102174479D02*
X135368990Y-104634990D01*
X136585980Y-100957489D02*
X135368990Y-102174479D01*
X140616149Y-100957489D02*
X136585980Y-100957489D01*
X141593000Y-102995000D02*
X141593000Y-101934340D01*
X141593000Y-101934340D02*
X140616149Y-100957489D01*
X142240000Y-111506000D02*
X142240000Y-116586000D01*
X135368990Y-104634990D02*
X142240000Y-111506000D01*
G04 #@! TO.N,/Pin2*
X141520660Y-99822000D02*
X135636000Y-99822000D01*
X143633000Y-102995000D02*
X143633000Y-101934340D01*
X143633000Y-101934340D02*
X141520660Y-99822000D01*
G04 #@! TO.N,/Pin7*
X140388265Y-97081265D02*
X141658265Y-97081265D01*
X141658265Y-97081265D02*
X142621000Y-98044000D01*
G04 #@! TO.N,/Pin3*
X146050000Y-114935000D02*
X143510000Y-114935000D01*
G04 #@! TO.N,/Pin1*
X147574000Y-113284000D02*
X143510000Y-113284000D01*
X134620000Y-115211000D02*
X134620000Y-116586000D01*
X136547000Y-113284000D02*
X134620000Y-115211000D01*
X139954000Y-113284000D02*
X136547000Y-113284000D01*
G04 #@! TO.N,/Y+*
X134620000Y-97788000D02*
X134233000Y-98175000D01*
X134620000Y-93980000D02*
X134620000Y-97788000D01*
G04 #@! TO.N,/Y-*
X137160000Y-97538000D02*
X136523000Y-98175000D01*
X137160000Y-93980000D02*
X137160000Y-97538000D01*
G04 #@! TO.N,/G+*
X140549999Y-94829999D02*
X139700000Y-93980000D01*
X142851499Y-97131499D02*
X140549999Y-94829999D01*
X144619499Y-97131499D02*
X142851499Y-97131499D01*
X145663000Y-98175000D02*
X144619499Y-97131499D01*
G04 #@! TO.N,/G-*
X147203001Y-97425001D02*
X147953000Y-98175000D01*
X145120501Y-95342501D02*
X147203001Y-97425001D01*
X143602501Y-95342501D02*
X145120501Y-95342501D01*
X142240000Y-93980000D02*
X143602501Y-95342501D01*
G04 #@! TD*
D17*
G04 #@! TO.N,GND*
G36*
X133105908Y-93980000D02*
X133221161Y-94559418D01*
X133549375Y-95050625D01*
X133722500Y-95166304D01*
X133722501Y-96887342D01*
X133448460Y-97000853D01*
X133058853Y-97390460D01*
X132848000Y-97899506D01*
X132848000Y-98450494D01*
X133058853Y-98959540D01*
X133448460Y-99349147D01*
X133957506Y-99560000D01*
X134508494Y-99560000D01*
X134648221Y-99502123D01*
X134601000Y-99616126D01*
X134601000Y-100027874D01*
X134758569Y-100408280D01*
X135049720Y-100699431D01*
X135420995Y-100853218D01*
X134796867Y-101477346D01*
X134721929Y-101527418D01*
X134671857Y-101602356D01*
X134639974Y-101650072D01*
X134523564Y-101824293D01*
X134471490Y-102086085D01*
X134471490Y-102086088D01*
X134453908Y-102174479D01*
X134471490Y-102262870D01*
X134471490Y-103225851D01*
X134382387Y-103010736D01*
X134115532Y-102912073D01*
X133142605Y-103885000D01*
X134115532Y-104857927D01*
X134382387Y-104759264D01*
X134471491Y-104519424D01*
X134471491Y-104546594D01*
X134453908Y-104634990D01*
X134523564Y-104985176D01*
X134570219Y-105055000D01*
X134293458Y-105055000D01*
X133863645Y-105233035D01*
X133935927Y-105037532D01*
X132963000Y-104064605D01*
X131990073Y-105037532D01*
X132088736Y-105304387D01*
X132698461Y-105530908D01*
X133348460Y-105506856D01*
X133359662Y-105502216D01*
X132827065Y-106034813D01*
X132483000Y-106865458D01*
X132483000Y-107764542D01*
X132827065Y-108595187D01*
X133462813Y-109230935D01*
X134293458Y-109575000D01*
X135192542Y-109575000D01*
X136023187Y-109230935D01*
X136658935Y-108595187D01*
X137003000Y-107764542D01*
X137003000Y-107538256D01*
X141342500Y-111877757D01*
X141342501Y-115399696D01*
X141169375Y-115515375D01*
X140970000Y-115813761D01*
X140770625Y-115515375D01*
X140279418Y-115187161D01*
X139846256Y-115101000D01*
X139553744Y-115101000D01*
X139120582Y-115187161D01*
X138629375Y-115515375D01*
X138430000Y-115813761D01*
X138230625Y-115515375D01*
X137739418Y-115187161D01*
X137306256Y-115101000D01*
X137013744Y-115101000D01*
X136580582Y-115187161D01*
X136089375Y-115515375D01*
X136077184Y-115533619D01*
X136068157Y-115488235D01*
X135927809Y-115278191D01*
X135864420Y-115235836D01*
X136918757Y-114181500D01*
X139416171Y-114181500D01*
X139748126Y-114319000D01*
X140159874Y-114319000D01*
X140540280Y-114161431D01*
X140831431Y-113870280D01*
X140989000Y-113489874D01*
X140989000Y-113078126D01*
X140831431Y-112697720D01*
X140540280Y-112406569D01*
X140159874Y-112249000D01*
X139748126Y-112249000D01*
X139416171Y-112386500D01*
X136635391Y-112386500D01*
X136547000Y-112368918D01*
X136458609Y-112386500D01*
X136458605Y-112386500D01*
X136196813Y-112438574D01*
X135974876Y-112586867D01*
X135974874Y-112586869D01*
X135899939Y-112636939D01*
X135849869Y-112711874D01*
X134047877Y-114513867D01*
X133972939Y-114563939D01*
X133774574Y-114860814D01*
X133727594Y-115096995D01*
X133522235Y-115137843D01*
X133312191Y-115278191D01*
X133171843Y-115488235D01*
X133122560Y-115736000D01*
X133122560Y-117400000D01*
X132396119Y-117400000D01*
X132146213Y-117355935D01*
X131981081Y-117260596D01*
X131858512Y-117114524D01*
X131782445Y-116905532D01*
X131774000Y-116809004D01*
X131774000Y-104844444D01*
X131810468Y-104857927D01*
X132783395Y-103885000D01*
X131810468Y-102912073D01*
X131774000Y-102925556D01*
X131774000Y-102732468D01*
X131990073Y-102732468D01*
X132963000Y-103705395D01*
X133935927Y-102732468D01*
X133837264Y-102465613D01*
X133227539Y-102239092D01*
X132577540Y-102263144D01*
X132088736Y-102465613D01*
X131990073Y-102732468D01*
X131774000Y-102732468D01*
X131774000Y-94042119D01*
X131818065Y-93792213D01*
X131913405Y-93627080D01*
X132059477Y-93504512D01*
X132268465Y-93428445D01*
X132364996Y-93420000D01*
X133217299Y-93420000D01*
X133105908Y-93980000D01*
X133105908Y-93980000D01*
G37*
X133105908Y-93980000D02*
X133221161Y-94559418D01*
X133549375Y-95050625D01*
X133722500Y-95166304D01*
X133722501Y-96887342D01*
X133448460Y-97000853D01*
X133058853Y-97390460D01*
X132848000Y-97899506D01*
X132848000Y-98450494D01*
X133058853Y-98959540D01*
X133448460Y-99349147D01*
X133957506Y-99560000D01*
X134508494Y-99560000D01*
X134648221Y-99502123D01*
X134601000Y-99616126D01*
X134601000Y-100027874D01*
X134758569Y-100408280D01*
X135049720Y-100699431D01*
X135420995Y-100853218D01*
X134796867Y-101477346D01*
X134721929Y-101527418D01*
X134671857Y-101602356D01*
X134639974Y-101650072D01*
X134523564Y-101824293D01*
X134471490Y-102086085D01*
X134471490Y-102086088D01*
X134453908Y-102174479D01*
X134471490Y-102262870D01*
X134471490Y-103225851D01*
X134382387Y-103010736D01*
X134115532Y-102912073D01*
X133142605Y-103885000D01*
X134115532Y-104857927D01*
X134382387Y-104759264D01*
X134471491Y-104519424D01*
X134471491Y-104546594D01*
X134453908Y-104634990D01*
X134523564Y-104985176D01*
X134570219Y-105055000D01*
X134293458Y-105055000D01*
X133863645Y-105233035D01*
X133935927Y-105037532D01*
X132963000Y-104064605D01*
X131990073Y-105037532D01*
X132088736Y-105304387D01*
X132698461Y-105530908D01*
X133348460Y-105506856D01*
X133359662Y-105502216D01*
X132827065Y-106034813D01*
X132483000Y-106865458D01*
X132483000Y-107764542D01*
X132827065Y-108595187D01*
X133462813Y-109230935D01*
X134293458Y-109575000D01*
X135192542Y-109575000D01*
X136023187Y-109230935D01*
X136658935Y-108595187D01*
X137003000Y-107764542D01*
X137003000Y-107538256D01*
X141342500Y-111877757D01*
X141342501Y-115399696D01*
X141169375Y-115515375D01*
X140970000Y-115813761D01*
X140770625Y-115515375D01*
X140279418Y-115187161D01*
X139846256Y-115101000D01*
X139553744Y-115101000D01*
X139120582Y-115187161D01*
X138629375Y-115515375D01*
X138430000Y-115813761D01*
X138230625Y-115515375D01*
X137739418Y-115187161D01*
X137306256Y-115101000D01*
X137013744Y-115101000D01*
X136580582Y-115187161D01*
X136089375Y-115515375D01*
X136077184Y-115533619D01*
X136068157Y-115488235D01*
X135927809Y-115278191D01*
X135864420Y-115235836D01*
X136918757Y-114181500D01*
X139416171Y-114181500D01*
X139748126Y-114319000D01*
X140159874Y-114319000D01*
X140540280Y-114161431D01*
X140831431Y-113870280D01*
X140989000Y-113489874D01*
X140989000Y-113078126D01*
X140831431Y-112697720D01*
X140540280Y-112406569D01*
X140159874Y-112249000D01*
X139748126Y-112249000D01*
X139416171Y-112386500D01*
X136635391Y-112386500D01*
X136547000Y-112368918D01*
X136458609Y-112386500D01*
X136458605Y-112386500D01*
X136196813Y-112438574D01*
X135974876Y-112586867D01*
X135974874Y-112586869D01*
X135899939Y-112636939D01*
X135849869Y-112711874D01*
X134047877Y-114513867D01*
X133972939Y-114563939D01*
X133774574Y-114860814D01*
X133727594Y-115096995D01*
X133522235Y-115137843D01*
X133312191Y-115278191D01*
X133171843Y-115488235D01*
X133122560Y-115736000D01*
X133122560Y-117400000D01*
X132396119Y-117400000D01*
X132146213Y-117355935D01*
X131981081Y-117260596D01*
X131858512Y-117114524D01*
X131782445Y-116905532D01*
X131774000Y-116809004D01*
X131774000Y-104844444D01*
X131810468Y-104857927D01*
X132783395Y-103885000D01*
X131810468Y-102912073D01*
X131774000Y-102925556D01*
X131774000Y-102732468D01*
X131990073Y-102732468D01*
X132963000Y-103705395D01*
X133935927Y-102732468D01*
X133837264Y-102465613D01*
X133227539Y-102239092D01*
X132577540Y-102263144D01*
X132088736Y-102465613D01*
X131990073Y-102732468D01*
X131774000Y-102732468D01*
X131774000Y-94042119D01*
X131818065Y-93792213D01*
X131913405Y-93627080D01*
X132059477Y-93504512D01*
X132268465Y-93428445D01*
X132364996Y-93420000D01*
X133217299Y-93420000D01*
X133105908Y-93980000D01*
G36*
X150047787Y-93464065D02*
X150212920Y-93559405D01*
X150335488Y-93705477D01*
X150411555Y-93914465D01*
X150420001Y-94011007D01*
X150420001Y-102928514D01*
X150375532Y-102912073D01*
X149402605Y-103885000D01*
X150375532Y-104857927D01*
X150420001Y-104841486D01*
X150420000Y-116777881D01*
X150375935Y-117027787D01*
X150280596Y-117192919D01*
X150134524Y-117315488D01*
X149925532Y-117391555D01*
X149829004Y-117400000D01*
X148562096Y-117400000D01*
X148718839Y-117165418D01*
X148834092Y-116586000D01*
X148793471Y-116381785D01*
X149416123Y-115759133D01*
X149491061Y-115709061D01*
X149689426Y-115412187D01*
X149741500Y-115150395D01*
X149741500Y-115150391D01*
X149759082Y-115062001D01*
X149741500Y-114973611D01*
X149741500Y-112737391D01*
X149759082Y-112649000D01*
X149741500Y-112560609D01*
X149741500Y-112560605D01*
X149689426Y-112298813D01*
X149592038Y-112153061D01*
X149541133Y-112076876D01*
X149541131Y-112076874D01*
X149491061Y-112001939D01*
X149416126Y-111951869D01*
X148030143Y-110565887D01*
X147980071Y-110490949D01*
X147683197Y-110292584D01*
X147421405Y-110240510D01*
X147421401Y-110240510D01*
X147333010Y-110222928D01*
X147244619Y-110240510D01*
X143399265Y-110240510D01*
X139169303Y-106010549D01*
X139317540Y-105949147D01*
X139553000Y-105713687D01*
X139788460Y-105949147D01*
X140297506Y-106160000D01*
X140848494Y-106160000D01*
X141357540Y-105949147D01*
X141593000Y-105713687D01*
X141828460Y-105949147D01*
X142337506Y-106160000D01*
X142888494Y-106160000D01*
X143397540Y-105949147D01*
X143412621Y-105934066D01*
X143445191Y-105982809D01*
X143655235Y-106123157D01*
X143903000Y-106172440D01*
X145403000Y-106172440D01*
X145476079Y-106157904D01*
X145183000Y-106865458D01*
X145183000Y-107764542D01*
X145527065Y-108595187D01*
X146162813Y-109230935D01*
X146993458Y-109575000D01*
X147892542Y-109575000D01*
X148723187Y-109230935D01*
X149358935Y-108595187D01*
X149703000Y-107764542D01*
X149703000Y-106865458D01*
X149358935Y-106034813D01*
X148793889Y-105469767D01*
X148958461Y-105530908D01*
X149608460Y-105506856D01*
X150097264Y-105304387D01*
X150195927Y-105037532D01*
X149223000Y-104064605D01*
X148250073Y-105037532D01*
X148322355Y-105233035D01*
X147892542Y-105055000D01*
X146993458Y-105055000D01*
X146162813Y-105399065D01*
X146050440Y-105511438D01*
X146050440Y-104025000D01*
X146001157Y-103777235D01*
X145896404Y-103620461D01*
X147577092Y-103620461D01*
X147601144Y-104270460D01*
X147803613Y-104759264D01*
X148070468Y-104857927D01*
X149043395Y-103885000D01*
X148070468Y-102912073D01*
X147803613Y-103010736D01*
X147577092Y-103620461D01*
X145896404Y-103620461D01*
X145860809Y-103567191D01*
X145650765Y-103426843D01*
X145403000Y-103377560D01*
X144973652Y-103377560D01*
X145018000Y-103270494D01*
X145018000Y-102732468D01*
X148250073Y-102732468D01*
X149223000Y-103705395D01*
X150195927Y-102732468D01*
X150097264Y-102465613D01*
X149487539Y-102239092D01*
X148837540Y-102263144D01*
X148348736Y-102465613D01*
X148250073Y-102732468D01*
X145018000Y-102732468D01*
X145018000Y-102719506D01*
X144807147Y-102210460D01*
X144545252Y-101948565D01*
X144548082Y-101934340D01*
X144530500Y-101845949D01*
X144530500Y-101845945D01*
X144478426Y-101584153D01*
X144343561Y-101382313D01*
X144330133Y-101362216D01*
X144330131Y-101362214D01*
X144280061Y-101287279D01*
X144205126Y-101237209D01*
X142217793Y-99249877D01*
X142167721Y-99174939D01*
X141870847Y-98976574D01*
X141609055Y-98924500D01*
X141609051Y-98924500D01*
X141520660Y-98906918D01*
X141432269Y-98924500D01*
X137711661Y-98924500D01*
X137908000Y-98450494D01*
X137908000Y-98033996D01*
X138005426Y-97888187D01*
X138018032Y-97824812D01*
X138057500Y-97626395D01*
X138057500Y-97626392D01*
X138075082Y-97538001D01*
X138057500Y-97449610D01*
X138057500Y-95166303D01*
X138230625Y-95050625D01*
X138430000Y-94752239D01*
X138629375Y-95050625D01*
X139120582Y-95378839D01*
X139553744Y-95465000D01*
X139846256Y-95465000D01*
X139904215Y-95453471D01*
X140497009Y-96046265D01*
X140182391Y-96046265D01*
X139801985Y-96203834D01*
X139510834Y-96494985D01*
X139353265Y-96875391D01*
X139353265Y-97287139D01*
X139510834Y-97667545D01*
X139801985Y-97958696D01*
X140182391Y-98116265D01*
X140594139Y-98116265D01*
X140926094Y-97978765D01*
X141286509Y-97978765D01*
X141606069Y-98298326D01*
X141743569Y-98630280D01*
X142034720Y-98921431D01*
X142415126Y-99079000D01*
X142826874Y-99079000D01*
X143207280Y-98921431D01*
X143498431Y-98630280D01*
X143656000Y-98249874D01*
X143656000Y-98028999D01*
X144247743Y-98028999D01*
X144278000Y-98059256D01*
X144278000Y-98450494D01*
X144488853Y-98959540D01*
X144878460Y-99349147D01*
X145387506Y-99560000D01*
X145938494Y-99560000D01*
X146447540Y-99349147D01*
X146808000Y-98988687D01*
X147168460Y-99349147D01*
X147677506Y-99560000D01*
X148228494Y-99560000D01*
X148737540Y-99349147D01*
X149127147Y-98959540D01*
X149338000Y-98450494D01*
X149338000Y-97899506D01*
X149127147Y-97390460D01*
X148737540Y-97000853D01*
X148228494Y-96790000D01*
X147837257Y-96790000D01*
X146524696Y-95477440D01*
X148170000Y-95477440D01*
X148417765Y-95428157D01*
X148627809Y-95287809D01*
X148768157Y-95077765D01*
X148817440Y-94830000D01*
X148817440Y-93420000D01*
X149797881Y-93420000D01*
X150047787Y-93464065D01*
X150047787Y-93464065D01*
G37*
X150047787Y-93464065D02*
X150212920Y-93559405D01*
X150335488Y-93705477D01*
X150411555Y-93914465D01*
X150420001Y-94011007D01*
X150420001Y-102928514D01*
X150375532Y-102912073D01*
X149402605Y-103885000D01*
X150375532Y-104857927D01*
X150420001Y-104841486D01*
X150420000Y-116777881D01*
X150375935Y-117027787D01*
X150280596Y-117192919D01*
X150134524Y-117315488D01*
X149925532Y-117391555D01*
X149829004Y-117400000D01*
X148562096Y-117400000D01*
X148718839Y-117165418D01*
X148834092Y-116586000D01*
X148793471Y-116381785D01*
X149416123Y-115759133D01*
X149491061Y-115709061D01*
X149689426Y-115412187D01*
X149741500Y-115150395D01*
X149741500Y-115150391D01*
X149759082Y-115062001D01*
X149741500Y-114973611D01*
X149741500Y-112737391D01*
X149759082Y-112649000D01*
X149741500Y-112560609D01*
X149741500Y-112560605D01*
X149689426Y-112298813D01*
X149592038Y-112153061D01*
X149541133Y-112076876D01*
X149541131Y-112076874D01*
X149491061Y-112001939D01*
X149416126Y-111951869D01*
X148030143Y-110565887D01*
X147980071Y-110490949D01*
X147683197Y-110292584D01*
X147421405Y-110240510D01*
X147421401Y-110240510D01*
X147333010Y-110222928D01*
X147244619Y-110240510D01*
X143399265Y-110240510D01*
X139169303Y-106010549D01*
X139317540Y-105949147D01*
X139553000Y-105713687D01*
X139788460Y-105949147D01*
X140297506Y-106160000D01*
X140848494Y-106160000D01*
X141357540Y-105949147D01*
X141593000Y-105713687D01*
X141828460Y-105949147D01*
X142337506Y-106160000D01*
X142888494Y-106160000D01*
X143397540Y-105949147D01*
X143412621Y-105934066D01*
X143445191Y-105982809D01*
X143655235Y-106123157D01*
X143903000Y-106172440D01*
X145403000Y-106172440D01*
X145476079Y-106157904D01*
X145183000Y-106865458D01*
X145183000Y-107764542D01*
X145527065Y-108595187D01*
X146162813Y-109230935D01*
X146993458Y-109575000D01*
X147892542Y-109575000D01*
X148723187Y-109230935D01*
X149358935Y-108595187D01*
X149703000Y-107764542D01*
X149703000Y-106865458D01*
X149358935Y-106034813D01*
X148793889Y-105469767D01*
X148958461Y-105530908D01*
X149608460Y-105506856D01*
X150097264Y-105304387D01*
X150195927Y-105037532D01*
X149223000Y-104064605D01*
X148250073Y-105037532D01*
X148322355Y-105233035D01*
X147892542Y-105055000D01*
X146993458Y-105055000D01*
X146162813Y-105399065D01*
X146050440Y-105511438D01*
X146050440Y-104025000D01*
X146001157Y-103777235D01*
X145896404Y-103620461D01*
X147577092Y-103620461D01*
X147601144Y-104270460D01*
X147803613Y-104759264D01*
X148070468Y-104857927D01*
X149043395Y-103885000D01*
X148070468Y-102912073D01*
X147803613Y-103010736D01*
X147577092Y-103620461D01*
X145896404Y-103620461D01*
X145860809Y-103567191D01*
X145650765Y-103426843D01*
X145403000Y-103377560D01*
X144973652Y-103377560D01*
X145018000Y-103270494D01*
X145018000Y-102732468D01*
X148250073Y-102732468D01*
X149223000Y-103705395D01*
X150195927Y-102732468D01*
X150097264Y-102465613D01*
X149487539Y-102239092D01*
X148837540Y-102263144D01*
X148348736Y-102465613D01*
X148250073Y-102732468D01*
X145018000Y-102732468D01*
X145018000Y-102719506D01*
X144807147Y-102210460D01*
X144545252Y-101948565D01*
X144548082Y-101934340D01*
X144530500Y-101845949D01*
X144530500Y-101845945D01*
X144478426Y-101584153D01*
X144343561Y-101382313D01*
X144330133Y-101362216D01*
X144330131Y-101362214D01*
X144280061Y-101287279D01*
X144205126Y-101237209D01*
X142217793Y-99249877D01*
X142167721Y-99174939D01*
X141870847Y-98976574D01*
X141609055Y-98924500D01*
X141609051Y-98924500D01*
X141520660Y-98906918D01*
X141432269Y-98924500D01*
X137711661Y-98924500D01*
X137908000Y-98450494D01*
X137908000Y-98033996D01*
X138005426Y-97888187D01*
X138018032Y-97824812D01*
X138057500Y-97626395D01*
X138057500Y-97626392D01*
X138075082Y-97538001D01*
X138057500Y-97449610D01*
X138057500Y-95166303D01*
X138230625Y-95050625D01*
X138430000Y-94752239D01*
X138629375Y-95050625D01*
X139120582Y-95378839D01*
X139553744Y-95465000D01*
X139846256Y-95465000D01*
X139904215Y-95453471D01*
X140497009Y-96046265D01*
X140182391Y-96046265D01*
X139801985Y-96203834D01*
X139510834Y-96494985D01*
X139353265Y-96875391D01*
X139353265Y-97287139D01*
X139510834Y-97667545D01*
X139801985Y-97958696D01*
X140182391Y-98116265D01*
X140594139Y-98116265D01*
X140926094Y-97978765D01*
X141286509Y-97978765D01*
X141606069Y-98298326D01*
X141743569Y-98630280D01*
X142034720Y-98921431D01*
X142415126Y-99079000D01*
X142826874Y-99079000D01*
X143207280Y-98921431D01*
X143498431Y-98630280D01*
X143656000Y-98249874D01*
X143656000Y-98028999D01*
X144247743Y-98028999D01*
X144278000Y-98059256D01*
X144278000Y-98450494D01*
X144488853Y-98959540D01*
X144878460Y-99349147D01*
X145387506Y-99560000D01*
X145938494Y-99560000D01*
X146447540Y-99349147D01*
X146808000Y-98988687D01*
X147168460Y-99349147D01*
X147677506Y-99560000D01*
X148228494Y-99560000D01*
X148737540Y-99349147D01*
X149127147Y-98959540D01*
X149338000Y-98450494D01*
X149338000Y-97899506D01*
X149127147Y-97390460D01*
X148737540Y-97000853D01*
X148228494Y-96790000D01*
X147837257Y-96790000D01*
X146524696Y-95477440D01*
X148170000Y-95477440D01*
X148417765Y-95428157D01*
X148627809Y-95287809D01*
X148768157Y-95077765D01*
X148817440Y-94830000D01*
X148817440Y-93420000D01*
X149797881Y-93420000D01*
X150047787Y-93464065D01*
G04 #@! TD*
M02*
